M48
; DRILL file {KiCad (5.1.0)-1} date 20/03/2019 15:24:49
; FORMAT={3:3/ absolute / metric / suppress leading zeros}
; #@! TF.CreationDate,2019-03-20T15:24:49+01:00
; #@! TF.GenerationSoftware,Kicad,Pcbnew,(5.1.0)-1
; #@! TF.FileFunction,Plated,1,4,PTH
FMAT,2
METRIC,TZ
T1C0.300
T2C0.400
T3C0.600
T4C0.800
T5C1.000
T6C1.200
T7C1.500
T8C1.700
%
G90
G05
T1
X60200Y-28500
X67200Y-81000
X67600Y-30700
X68300Y-158700
X68800Y-66100
X68900Y-61300
X71100Y-74000
X72200Y-40150
X72300Y-78700
X72560Y-46200
X72900Y-51900
X73300Y-158700
X74040Y-83020
X74400Y-32300
X74400Y-35400
X74400Y-37300
X74600Y-38800
X75200Y-44300
X75200Y-46900
X75200Y-49300
X76000Y-79100
X76200Y-52100
X76200Y-55200
X77300Y-43400
X77300Y-45900
X77300Y-48400
X77300Y-50900
X77700Y-84100
X78000Y-131400
X78041Y-123450
X78041Y-125250
X78041Y-127050
X78300Y-158700
X79500Y-77600
X79700Y-49900
X79700Y-53400
X79700Y-55900
X79700Y-60600
X79700Y-61900
X79700Y-66700
X80110Y-34350
X80330Y-32530
X81900Y-39600
X81900Y-43100
X82100Y-91150
X82400Y-82300
X82600Y-49900
X82910Y-72940
X83100Y-66700
X83200Y-53400
X83200Y-57000
X83200Y-63000
X83300Y-158700
X84900Y-35300
X85320Y-28820
X85500Y-108380
X85800Y-83740
X86200Y-30750
X86420Y-100750
X87800Y-83740
X88300Y-158700
X89000Y-37500
X89100Y-21700
X89280Y-72740
X89300Y-39100
X89800Y-83740
X90120Y-51720
X90160Y-49100
X90800Y-137200
X91060Y-58580
X91400Y-66100
X91500Y-62800
X91800Y-38600
X91800Y-41300
X92140Y-52880
X92300Y-34200
X92300Y-35500
X92500Y-64000
X92600Y-86200
X92600Y-96350
X92600Y-105200
X92600Y-137200
X93300Y-158700
X93500Y-62800
X94500Y-64000
X94600Y-58990
X94700Y-136000
X94800Y-138300
X95600Y-45200
X95670Y-54900
X96000Y-35900
X96300Y-33900
X96300Y-38525
X97000Y-103500
X97000Y-105300
X97000Y-107100
X97000Y-108900
X97000Y-110700
X97700Y-37100
X97800Y-39100
X98100Y-32400
X98300Y-158700
X98399Y-51700
X98700Y-84100
X98700Y-123400
X98700Y-125400
X98800Y-54800
X98800Y-56400
X98900Y-59600
X99000Y-43200
X99000Y-46600
X99200Y-97500
X99700Y-40200
X99800Y-61200
X100000Y-120000
X100100Y-50800
X100200Y-55600
X100200Y-54000
X100600Y-33550
X100700Y-57500
X100700Y-125400
X100850Y-42350
X100890Y-72370
X100900Y-79500
X101000Y-103500
X101000Y-105300
X101000Y-107100
X101000Y-108900
X101000Y-110700
X101250Y-39150
X102100Y-41000
X102200Y-38125
X102400Y-62500
X103300Y-158700
X103500Y-79500
X103725Y-41025
X103780Y-43280
X104050Y-36625
X104200Y-33600
X104400Y-49500
X104860Y-61200
X105000Y-38000
X105000Y-106500
X105000Y-106500
X105000Y-106500
X105000Y-106500
X105000Y-106500
X105000Y-106500
X105000Y-106500
X105000Y-106500
X105000Y-106500
X105000Y-106500
X105000Y-106500
X105000Y-106500
X105000Y-106500
X105000Y-106500
X105000Y-106500
X105000Y-106500
X105000Y-106500
X105050Y-40210
X105100Y-32500
X105240Y-56070
X105400Y-51000
X105700Y-35800
X106000Y-79500
X106200Y-65100
X106520Y-67380
X106910Y-127760
X106957Y-62605
X107100Y-45400
X107650Y-66000
X107800Y-42600
X108300Y-158700
X108590Y-113510
X108600Y-79500
X109500Y-51600
X109900Y-45400
X110100Y-61200
X110310Y-55330
X111100Y-79500
X111480Y-39600
X111480Y-127840
X111500Y-34600
X111500Y-47400
X111500Y-50700
X111500Y-93300
X111600Y-36225
X112430Y-111290
X112430Y-114250
X112900Y-42600
X113200Y-70100
X113300Y-158700
X113600Y-46900
X114500Y-44000
X115500Y-110200
X115660Y-113590
X115800Y-128600
X115950Y-138750
X116000Y-41900
X116100Y-28910
X116700Y-68600
X116990Y-111230
X117090Y-30490
X117300Y-51800
X117600Y-58320
X117800Y-138750
X118300Y-158700
X118650Y-113450
X119190Y-111470
X119500Y-89400
X120700Y-121200
X122400Y-47500
X122550Y-60000
X123300Y-158700
X124600Y-111590
X128400Y-109950
X128400Y-129300
X128400Y-150300
X128400Y-157300
X128425Y-112750
X128425Y-122300
X77641Y-120310
X77641Y-121010
X77641Y-121710
X77641Y-122410
X78441Y-120410
X78441Y-121110
X78441Y-121810
X78441Y-122510
T2
X51800Y-134600
X51800Y-139600
X51800Y-144600
X51800Y-149600
X52100Y-22200
X52150Y-157950
X54930Y-113220
X55090Y-85680
X57500Y-133640
X57900Y-44900
X58000Y-39500
X58000Y-50400
X58100Y-33880
X58700Y-126600
X59500Y-43500
X59600Y-32600
X59600Y-38100
X59600Y-49100
X59650Y-158750
X60200Y-85300
X61000Y-139680
X61460Y-70110
X61460Y-73110
X61460Y-76110
X61460Y-79110
X61460Y-82200
X61900Y-122700
X62400Y-147200
X62400Y-149000
X62400Y-150800
X63000Y-91300
X63090Y-98390
X63100Y-84100
X63600Y-90600
X63690Y-97690
X63700Y-83400
X64200Y-91300
X64200Y-92500
X64200Y-147200
X64200Y-149000
X64200Y-150800
X64290Y-98390
X64290Y-99590
X64300Y-84100
X64300Y-85300
X64800Y-70900
X64800Y-73900
X64800Y-76900
X64800Y-79900
X64800Y-90600
X64890Y-97690
X64900Y-83400
X65050Y-140030
X65300Y-94900
X65400Y-91300
X65490Y-98390
X65500Y-84100
X65500Y-88800
X65800Y-35400
X65800Y-40900
X65800Y-46400
X65800Y-51900
X66000Y-36800
X66000Y-147200
X66000Y-150800
X66100Y-115840
X66200Y-42300
X66400Y-47800
X66400Y-53300
X67800Y-147200
X67800Y-149000
X67800Y-150800
X68400Y-42300
X68400Y-134730
X68500Y-36800
X68600Y-47800
X68600Y-53300
X69400Y-129400
X69600Y-147200
X69600Y-149000
X69900Y-54700
X69900Y-81700
X70080Y-37610
X70080Y-43090
X70080Y-48560
X70500Y-35400
X70500Y-40900
X70500Y-46400
X70500Y-51900
X70700Y-142900
X70700Y-144700
X71100Y-70100
X71700Y-49400
X71700Y-55000
X71700Y-123800
X71750Y-43640
X71770Y-38150
X72250Y-107850
X72250Y-111550
X72250Y-113350
X72250Y-115150
X72320Y-101380
X72500Y-142900
X73500Y-69500
X73580Y-97030
X73800Y-73100
X73850Y-102480
X73900Y-95300
X74050Y-107850
X74050Y-111550
X74050Y-113350
X74050Y-115150
X74200Y-142900
X74200Y-144700
X74600Y-92400
X75200Y-136300
X75200Y-138000
X75200Y-139700
X75850Y-107850
X75850Y-111550
X75850Y-113350
X75850Y-115150
X76000Y-142900
X76000Y-144700
X76200Y-153700
X76900Y-136300
X76900Y-138000
X76900Y-139700
X77650Y-113350
X77800Y-142900
X77800Y-144700
X78041Y-118800
X78600Y-136300
X78600Y-138000
X78600Y-139700
X78650Y-104500
X79450Y-113350
X79600Y-142900
X79600Y-144700
X80300Y-136300
X80300Y-138000
X80300Y-139700
X80650Y-99200
X80650Y-102350
X80650Y-107550
X80822Y-93800
X81400Y-97400
X81490Y-76000
X81550Y-121200
X81600Y-48000
X81775Y-28355
X82200Y-54700
X82200Y-59400
X82450Y-99200
X82450Y-102350
X83250Y-122000
X83300Y-87500
X83400Y-44900
X83700Y-97400
X84250Y-99200
X84250Y-100750
X84250Y-102350
X85400Y-129400
X85500Y-63900
X85600Y-46000
X85600Y-47400
X85600Y-52100
X85600Y-58000
X85700Y-53400
X85700Y-59400
X85700Y-65400
X85700Y-150600
X86200Y-134490
X88100Y-51700
X88100Y-57600
X88100Y-63600
X88200Y-53900
X88200Y-59900
X88200Y-65900
X88600Y-45600
X89300Y-47500
X89540Y-100770
X89600Y-93800
X89800Y-145500
X90000Y-128900
X90050Y-120350
X90290Y-92140
X90550Y-61420
X90600Y-53600
X91650Y-74470
X93000Y-113100
X93800Y-141550
X94700Y-50500
X94910Y-60480
X95200Y-51785
X96100Y-132000
X97670Y-139340
X98250Y-141150
X98910Y-139340
X100670Y-66480
X101200Y-95100
X101200Y-97100
X102460Y-65800
X102900Y-86400
X102900Y-88400
X102900Y-90400
X103200Y-95100
X103200Y-97100
X103350Y-127750
X103350Y-132280
X103700Y-148500
X104300Y-46100
X104450Y-144200
X104900Y-86400
X104900Y-88400
X104900Y-90400
X105200Y-95100
X105200Y-97100
X105700Y-45600
X106600Y-89300
X106600Y-91300
X108300Y-144200
X108600Y-89300
X108600Y-91300
X109200Y-110700
X109200Y-111900
X109400Y-70100
X109500Y-95100
X109500Y-97100
X109500Y-99100
X110400Y-69200
X110400Y-70100
X110600Y-89300
X110600Y-91300
X110700Y-132650
X110700Y-135850
X110800Y-66000
X111300Y-143700
X111400Y-70100
X111500Y-95100
X111500Y-97100
X111500Y-99100
X111900Y-139000
X111900Y-140700
X112300Y-84770
X113400Y-28300
X113650Y-105650
X114270Y-86260
X114300Y-144400
X114500Y-48800
X115200Y-50400
X115200Y-51800
X115400Y-80800
X115490Y-134910
X115600Y-35300
X117000Y-145500
X117600Y-48900
X117600Y-133600
X117740Y-93050
X117740Y-96250
X118100Y-35400
X118200Y-140700
X118250Y-152050
X119100Y-143300
X119100Y-145500
X119450Y-103050
X119700Y-138700
X120000Y-140700
X120190Y-94000
X120450Y-109050
X120500Y-144400
X120700Y-44600
X121200Y-22200
X121360Y-94000
X121520Y-135030
X121600Y-40700
X121800Y-140700
X121800Y-143300
X121800Y-145500
X121900Y-138700
X123940Y-90800
X124100Y-138700
X125080Y-105300
X126300Y-106700
X126300Y-138700
X126300Y-140900
X126300Y-143100
X126300Y-145300
X126400Y-125800
X126940Y-80730
X127550Y-22150
X128050Y-27950
X128500Y-138700
X128500Y-140900
X128500Y-143100
X128500Y-145300
X128500Y-147500
T3
X66290Y-127690
X69900Y-59500
X69900Y-64300
X69900Y-67900
X71700Y-62100
X85650Y-39900
X87900Y-147700
X89270Y-78520
X116650Y-39700
T4
X124000Y-49000
X124000Y-51000
X124000Y-53000
X124000Y-55000
X124000Y-57000
X124000Y-59000
X124000Y-61000
X124000Y-63000
X124000Y-65000
X124000Y-67000
X124000Y-69000
X124000Y-71000
X124000Y-73000
X124000Y-75000
X126000Y-49000
X126000Y-51000
X126000Y-53000
X126000Y-55000
X126000Y-57000
X126000Y-59000
X126000Y-61000
X126000Y-63000
X126000Y-65000
X126000Y-67000
X126000Y-69000
X126000Y-71000
X126000Y-73000
X126000Y-75000
X124000Y-37000
X124000Y-39000
X124000Y-41000
X124000Y-43000
X124000Y-45000
X126000Y-37000
X126000Y-39000
X126000Y-41000
X126000Y-43000
X126000Y-45000
X81800Y-124000
T5
X66000Y-144000
X66000Y-149000
T6
X53500Y-72320
X53500Y-74860
X53500Y-77400
X53500Y-79940
X53500Y-82480
X94560Y-23800
X97100Y-23800
X99640Y-23800
X102180Y-23800
X104720Y-23800
X107260Y-23800
X109800Y-23800
X112340Y-23800
X114880Y-23800
X117420Y-23800
X53700Y-33880
X53700Y-36420
X53700Y-38960
X53700Y-41500
X53700Y-44040
X53700Y-46580
X53700Y-49120
X53700Y-51660
X53500Y-90570
X53500Y-93110
X53500Y-95650
X53500Y-98190
X53500Y-100730
X53500Y-103270
X53500Y-105810
X53500Y-108350
X53500Y-118790
X53500Y-121330
X53500Y-123870
X53500Y-126410
X53500Y-128950
X53600Y-59070
X53600Y-61610
X53600Y-64150
X62700Y-23800
X65240Y-23800
X67780Y-23800
X70320Y-23800
X72860Y-23800
X75400Y-23800
X77940Y-23800
X80480Y-23800
X83020Y-23800
X85560Y-23800
T7
X110000Y-152000
T8
X107460Y-149460
X107460Y-154540
X112540Y-149460
X112540Y-154540
T0
M30
