%TF.GenerationSoftware,KiCad,Pcbnew,(5.1.0)-1*%
%TF.CreationDate,2019-03-20T15:23:46+01:00*%
%TF.ProjectId,AcroBoard_Station_GPRS_V04R04_XTAL,4163726f-426f-4617-9264-5f5374617469,rev?*%
%TF.SameCoordinates,Original*%
%TF.FileFunction,Soldermask,Bot*%
%TF.FilePolarity,Negative*%
%FSLAX46Y46*%
G04 Gerber Fmt 4.6, Leading zero omitted, Abs format (unit mm)*
G04 Created by KiCad (PCBNEW (5.1.0)-1) date 2019-03-20 15:23:46*
%MOMM*%
%LPD*%
G04 APERTURE LIST*
%ADD10C,0.050000*%
G04 APERTURE END LIST*
D10*
G36*
X125409729Y-152940155D02*
G01*
X125612606Y-152980509D01*
X125994818Y-153138827D01*
X126338799Y-153368668D01*
X126631332Y-153661201D01*
X126861173Y-154005182D01*
X127019491Y-154387394D01*
X127028296Y-154431659D01*
X127071397Y-154648342D01*
X127100200Y-154793148D01*
X127100200Y-155206852D01*
X127019491Y-155612606D01*
X126861173Y-155994818D01*
X126631332Y-156338799D01*
X126338799Y-156631332D01*
X125994818Y-156861173D01*
X125612606Y-157019491D01*
X125409729Y-157059845D01*
X125206853Y-157100200D01*
X124793147Y-157100200D01*
X124590271Y-157059845D01*
X124387394Y-157019491D01*
X124005182Y-156861173D01*
X123661201Y-156631332D01*
X123368668Y-156338799D01*
X123138827Y-155994818D01*
X122980509Y-155612606D01*
X122899800Y-155206852D01*
X122899800Y-154793148D01*
X122928604Y-154648342D01*
X122971704Y-154431659D01*
X122980509Y-154387394D01*
X123138827Y-154005182D01*
X123368668Y-153661201D01*
X123661201Y-153368668D01*
X124005182Y-153138827D01*
X124387394Y-152980509D01*
X124590271Y-152940155D01*
X124793147Y-152899800D01*
X125206853Y-152899800D01*
X125409729Y-152940155D01*
X125409729Y-152940155D01*
G37*
G36*
X55409729Y-152940155D02*
G01*
X55612606Y-152980509D01*
X55994818Y-153138827D01*
X56338799Y-153368668D01*
X56631332Y-153661201D01*
X56861173Y-154005182D01*
X57019491Y-154387394D01*
X57028296Y-154431659D01*
X57071397Y-154648342D01*
X57100200Y-154793148D01*
X57100200Y-155206852D01*
X57019491Y-155612606D01*
X56861173Y-155994818D01*
X56631332Y-156338799D01*
X56338799Y-156631332D01*
X55994818Y-156861173D01*
X55612606Y-157019491D01*
X55409729Y-157059845D01*
X55206853Y-157100200D01*
X54793147Y-157100200D01*
X54590271Y-157059845D01*
X54387394Y-157019491D01*
X54005182Y-156861173D01*
X53661201Y-156631332D01*
X53368668Y-156338799D01*
X53138827Y-155994818D01*
X52980509Y-155612606D01*
X52899800Y-155206852D01*
X52899800Y-154793148D01*
X52928604Y-154648342D01*
X52971704Y-154431659D01*
X52980509Y-154387394D01*
X53138827Y-154005182D01*
X53368668Y-153661201D01*
X53661201Y-153368668D01*
X54005182Y-153138827D01*
X54387394Y-152980509D01*
X54590271Y-152940155D01*
X54793147Y-152899800D01*
X55206853Y-152899800D01*
X55409729Y-152940155D01*
X55409729Y-152940155D01*
G37*
G36*
X112860857Y-153482272D02*
G01*
X113061043Y-153565192D01*
X113061045Y-153565193D01*
X113151738Y-153625792D01*
X113241208Y-153685574D01*
X113394426Y-153838792D01*
X113514808Y-154018957D01*
X113597728Y-154219143D01*
X113640000Y-154431658D01*
X113640000Y-154648342D01*
X113597728Y-154860857D01*
X113514808Y-155061043D01*
X113514807Y-155061045D01*
X113394425Y-155241209D01*
X113241209Y-155394425D01*
X113061045Y-155514807D01*
X113061044Y-155514808D01*
X113061043Y-155514808D01*
X112860857Y-155597728D01*
X112648342Y-155640000D01*
X112431658Y-155640000D01*
X112219143Y-155597728D01*
X112018957Y-155514808D01*
X112018956Y-155514808D01*
X112018955Y-155514807D01*
X111838791Y-155394425D01*
X111685575Y-155241209D01*
X111565193Y-155061045D01*
X111565192Y-155061043D01*
X111482272Y-154860857D01*
X111440000Y-154648342D01*
X111440000Y-154431658D01*
X111482272Y-154219143D01*
X111565192Y-154018957D01*
X111685574Y-153838792D01*
X111838792Y-153685574D01*
X111928262Y-153625792D01*
X112018955Y-153565193D01*
X112018957Y-153565192D01*
X112219143Y-153482272D01*
X112431658Y-153440000D01*
X112648342Y-153440000D01*
X112860857Y-153482272D01*
X112860857Y-153482272D01*
G37*
G36*
X107780857Y-153482272D02*
G01*
X107981043Y-153565192D01*
X107981045Y-153565193D01*
X108071738Y-153625792D01*
X108161208Y-153685574D01*
X108314426Y-153838792D01*
X108434808Y-154018957D01*
X108517728Y-154219143D01*
X108560000Y-154431658D01*
X108560000Y-154648342D01*
X108517728Y-154860857D01*
X108434808Y-155061043D01*
X108434807Y-155061045D01*
X108314425Y-155241209D01*
X108161209Y-155394425D01*
X107981045Y-155514807D01*
X107981044Y-155514808D01*
X107981043Y-155514808D01*
X107780857Y-155597728D01*
X107568342Y-155640000D01*
X107351658Y-155640000D01*
X107139143Y-155597728D01*
X106938957Y-155514808D01*
X106938956Y-155514808D01*
X106938955Y-155514807D01*
X106758791Y-155394425D01*
X106605575Y-155241209D01*
X106485193Y-155061045D01*
X106485192Y-155061043D01*
X106402272Y-154860857D01*
X106360000Y-154648342D01*
X106360000Y-154431658D01*
X106402272Y-154219143D01*
X106485192Y-154018957D01*
X106605574Y-153838792D01*
X106758792Y-153685574D01*
X106848262Y-153625792D01*
X106938955Y-153565193D01*
X106938957Y-153565192D01*
X107139143Y-153482272D01*
X107351658Y-153440000D01*
X107568342Y-153440000D01*
X107780857Y-153482272D01*
X107780857Y-153482272D01*
G37*
G36*
X110227290Y-151025619D02*
G01*
X110291689Y-151038429D01*
X110473678Y-151113811D01*
X110637463Y-151223249D01*
X110776751Y-151362537D01*
X110886189Y-151526322D01*
X110961571Y-151708311D01*
X111000000Y-151901509D01*
X111000000Y-152098491D01*
X110961571Y-152291689D01*
X110886189Y-152473678D01*
X110776751Y-152637463D01*
X110637463Y-152776751D01*
X110473678Y-152886189D01*
X110291689Y-152961571D01*
X110227290Y-152974381D01*
X110098493Y-153000000D01*
X109901507Y-153000000D01*
X109772710Y-152974381D01*
X109708311Y-152961571D01*
X109526322Y-152886189D01*
X109362537Y-152776751D01*
X109223249Y-152637463D01*
X109113811Y-152473678D01*
X109038429Y-152291689D01*
X109000000Y-152098491D01*
X109000000Y-151901509D01*
X109038429Y-151708311D01*
X109113811Y-151526322D01*
X109223249Y-151362537D01*
X109362537Y-151223249D01*
X109526322Y-151113811D01*
X109708311Y-151038429D01*
X109772710Y-151025619D01*
X109901507Y-151000000D01*
X110098493Y-151000000D01*
X110227290Y-151025619D01*
X110227290Y-151025619D01*
G37*
G36*
X112860857Y-148402272D02*
G01*
X113061043Y-148485192D01*
X113061045Y-148485193D01*
X113151738Y-148545792D01*
X113241208Y-148605574D01*
X113394426Y-148758792D01*
X113514808Y-148938957D01*
X113597728Y-149139143D01*
X113640000Y-149351658D01*
X113640000Y-149568342D01*
X113597728Y-149780857D01*
X113514808Y-149981043D01*
X113514807Y-149981045D01*
X113394425Y-150161209D01*
X113241209Y-150314425D01*
X113061045Y-150434807D01*
X113061044Y-150434808D01*
X113061043Y-150434808D01*
X112860857Y-150517728D01*
X112648342Y-150560000D01*
X112431658Y-150560000D01*
X112219143Y-150517728D01*
X112018957Y-150434808D01*
X112018956Y-150434808D01*
X112018955Y-150434807D01*
X111838791Y-150314425D01*
X111685575Y-150161209D01*
X111565193Y-149981045D01*
X111565192Y-149981043D01*
X111482272Y-149780857D01*
X111440000Y-149568342D01*
X111440000Y-149351658D01*
X111482272Y-149139143D01*
X111565192Y-148938957D01*
X111685574Y-148758792D01*
X111838792Y-148605574D01*
X111928262Y-148545792D01*
X112018955Y-148485193D01*
X112018957Y-148485192D01*
X112219143Y-148402272D01*
X112431658Y-148360000D01*
X112648342Y-148360000D01*
X112860857Y-148402272D01*
X112860857Y-148402272D01*
G37*
G36*
X107780857Y-148402272D02*
G01*
X107981043Y-148485192D01*
X107981045Y-148485193D01*
X108071738Y-148545792D01*
X108161208Y-148605574D01*
X108314426Y-148758792D01*
X108434808Y-148938957D01*
X108517728Y-149139143D01*
X108560000Y-149351658D01*
X108560000Y-149568342D01*
X108517728Y-149780857D01*
X108434808Y-149981043D01*
X108434807Y-149981045D01*
X108314425Y-150161209D01*
X108161209Y-150314425D01*
X107981045Y-150434807D01*
X107981044Y-150434808D01*
X107981043Y-150434808D01*
X107780857Y-150517728D01*
X107568342Y-150560000D01*
X107351658Y-150560000D01*
X107139143Y-150517728D01*
X106938957Y-150434808D01*
X106938956Y-150434808D01*
X106938955Y-150434807D01*
X106758791Y-150314425D01*
X106605575Y-150161209D01*
X106485193Y-149981045D01*
X106485192Y-149981043D01*
X106402272Y-149780857D01*
X106360000Y-149568342D01*
X106360000Y-149351658D01*
X106402272Y-149139143D01*
X106485192Y-148938957D01*
X106605574Y-148758792D01*
X106758792Y-148605574D01*
X106848262Y-148545792D01*
X106938955Y-148485193D01*
X106938957Y-148485192D01*
X107139143Y-148402272D01*
X107351658Y-148360000D01*
X107568342Y-148360000D01*
X107780857Y-148402272D01*
X107780857Y-148402272D01*
G37*
G36*
X67000000Y-150000000D02*
G01*
X65000000Y-150000000D01*
X65000000Y-148000000D01*
X67000000Y-148000000D01*
X67000000Y-150000000D01*
X67000000Y-150000000D01*
G37*
G36*
X66227290Y-143025619D02*
G01*
X66291689Y-143038429D01*
X66473678Y-143113811D01*
X66637463Y-143223249D01*
X66776751Y-143362537D01*
X66886189Y-143526322D01*
X66961571Y-143708311D01*
X67000000Y-143901509D01*
X67000000Y-144098491D01*
X66961571Y-144291689D01*
X66886189Y-144473678D01*
X66776751Y-144637463D01*
X66637463Y-144776751D01*
X66473678Y-144886189D01*
X66291689Y-144961571D01*
X66227290Y-144974381D01*
X66098493Y-145000000D01*
X65901507Y-145000000D01*
X65772710Y-144974381D01*
X65708311Y-144961571D01*
X65526322Y-144886189D01*
X65362537Y-144776751D01*
X65223249Y-144637463D01*
X65113811Y-144473678D01*
X65038429Y-144291689D01*
X65000000Y-144098491D01*
X65000000Y-143901509D01*
X65038429Y-143708311D01*
X65113811Y-143526322D01*
X65223249Y-143362537D01*
X65362537Y-143223249D01*
X65526322Y-143113811D01*
X65708311Y-143038429D01*
X65772710Y-143025619D01*
X65901507Y-143000000D01*
X66098493Y-143000000D01*
X66227290Y-143025619D01*
X66227290Y-143025619D01*
G37*
G36*
X54800000Y-129950000D02*
G01*
X52200000Y-129950000D01*
X52200000Y-127950000D01*
X54800000Y-127950000D01*
X54800000Y-129950000D01*
X54800000Y-129950000D01*
G37*
G36*
X53996032Y-125424469D02*
G01*
X54090284Y-125453060D01*
X54184535Y-125481651D01*
X54184537Y-125481652D01*
X54358258Y-125574507D01*
X54510528Y-125699472D01*
X54635493Y-125851742D01*
X54728348Y-126025463D01*
X54785531Y-126213968D01*
X54804838Y-126410000D01*
X54785531Y-126606032D01*
X54728348Y-126794537D01*
X54635493Y-126968258D01*
X54510528Y-127120528D01*
X54358258Y-127245493D01*
X54184537Y-127338348D01*
X54184535Y-127338349D01*
X54090285Y-127366939D01*
X53996032Y-127395531D01*
X53849124Y-127410000D01*
X53150876Y-127410000D01*
X53003968Y-127395531D01*
X52909715Y-127366939D01*
X52815465Y-127338349D01*
X52815463Y-127338348D01*
X52641742Y-127245493D01*
X52489472Y-127120528D01*
X52364507Y-126968258D01*
X52271652Y-126794537D01*
X52214469Y-126606032D01*
X52195162Y-126410000D01*
X52214469Y-126213968D01*
X52271652Y-126025463D01*
X52364507Y-125851742D01*
X52489472Y-125699472D01*
X52641742Y-125574507D01*
X52815463Y-125481652D01*
X52815465Y-125481651D01*
X52909716Y-125453060D01*
X53003968Y-125424469D01*
X53150876Y-125410000D01*
X53849124Y-125410000D01*
X53996032Y-125424469D01*
X53996032Y-125424469D01*
G37*
G36*
X53996032Y-122884469D02*
G01*
X54090284Y-122913060D01*
X54184535Y-122941651D01*
X54184537Y-122941652D01*
X54358258Y-123034507D01*
X54510528Y-123159472D01*
X54635493Y-123311742D01*
X54728348Y-123485463D01*
X54785531Y-123673968D01*
X54804838Y-123870000D01*
X54785531Y-124066032D01*
X54728348Y-124254537D01*
X54635493Y-124428258D01*
X54510528Y-124580528D01*
X54358258Y-124705493D01*
X54184537Y-124798348D01*
X54184535Y-124798349D01*
X54090285Y-124826939D01*
X53996032Y-124855531D01*
X53849124Y-124870000D01*
X53150876Y-124870000D01*
X53003968Y-124855531D01*
X52909715Y-124826939D01*
X52815465Y-124798349D01*
X52815463Y-124798348D01*
X52641742Y-124705493D01*
X52489472Y-124580528D01*
X52364507Y-124428258D01*
X52271652Y-124254537D01*
X52214469Y-124066032D01*
X52195162Y-123870000D01*
X52214469Y-123673968D01*
X52271652Y-123485463D01*
X52364507Y-123311742D01*
X52489472Y-123159472D01*
X52641742Y-123034507D01*
X52815463Y-122941652D01*
X52815465Y-122941651D01*
X52909716Y-122913060D01*
X53003968Y-122884469D01*
X53150876Y-122870000D01*
X53849124Y-122870000D01*
X53996032Y-122884469D01*
X53996032Y-122884469D01*
G37*
G36*
X82018766Y-123278821D02*
G01*
X82155257Y-123335358D01*
X82278097Y-123417437D01*
X82382563Y-123521903D01*
X82464642Y-123644743D01*
X82521179Y-123781234D01*
X82550000Y-123926130D01*
X82550000Y-124073870D01*
X82521179Y-124218766D01*
X82464642Y-124355257D01*
X82382563Y-124478097D01*
X82278097Y-124582563D01*
X82155257Y-124664642D01*
X82018766Y-124721179D01*
X81873870Y-124750000D01*
X81726130Y-124750000D01*
X81581234Y-124721179D01*
X81444743Y-124664642D01*
X81321903Y-124582563D01*
X81217437Y-124478097D01*
X81135358Y-124355257D01*
X81078821Y-124218766D01*
X81050000Y-124073870D01*
X81050000Y-123926130D01*
X81078821Y-123781234D01*
X81135358Y-123644743D01*
X81217437Y-123521903D01*
X81321903Y-123417437D01*
X81444743Y-123335358D01*
X81581234Y-123278821D01*
X81726130Y-123250000D01*
X81873870Y-123250000D01*
X82018766Y-123278821D01*
X82018766Y-123278821D01*
G37*
G36*
X77728146Y-120021741D02*
G01*
X77782742Y-120044356D01*
X77831878Y-120077187D01*
X77873665Y-120118974D01*
X77906496Y-120168110D01*
X77929111Y-120222706D01*
X77934525Y-120249927D01*
X77941636Y-120273369D01*
X77953187Y-120294980D01*
X77968732Y-120313921D01*
X77987674Y-120329467D01*
X78009285Y-120341018D01*
X78032734Y-120348131D01*
X78057120Y-120350533D01*
X78081506Y-120348131D01*
X78104955Y-120341018D01*
X78126566Y-120329467D01*
X78145507Y-120313922D01*
X78161053Y-120294980D01*
X78172603Y-120273371D01*
X78174782Y-120268111D01*
X78174782Y-120268110D01*
X78207613Y-120218974D01*
X78249400Y-120177187D01*
X78298536Y-120144356D01*
X78353132Y-120121741D01*
X78411092Y-120110213D01*
X78470186Y-120110213D01*
X78528146Y-120121741D01*
X78582742Y-120144356D01*
X78631878Y-120177187D01*
X78673665Y-120218974D01*
X78706496Y-120268110D01*
X78729111Y-120322706D01*
X78740639Y-120380666D01*
X78740639Y-120439760D01*
X78729111Y-120497720D01*
X78706496Y-120552316D01*
X78673665Y-120601452D01*
X78631878Y-120643239D01*
X78612353Y-120656285D01*
X78593417Y-120671825D01*
X78577872Y-120690766D01*
X78566320Y-120712377D01*
X78559207Y-120735826D01*
X78556805Y-120760212D01*
X78559207Y-120784598D01*
X78566320Y-120808047D01*
X78577871Y-120829658D01*
X78593416Y-120848600D01*
X78612353Y-120864141D01*
X78631878Y-120877187D01*
X78673665Y-120918974D01*
X78706496Y-120968110D01*
X78729111Y-121022706D01*
X78740639Y-121080666D01*
X78740639Y-121139760D01*
X78729111Y-121197720D01*
X78706496Y-121252316D01*
X78673665Y-121301452D01*
X78631878Y-121343239D01*
X78612353Y-121356285D01*
X78593417Y-121371825D01*
X78577872Y-121390766D01*
X78566320Y-121412377D01*
X78559207Y-121435826D01*
X78556805Y-121460212D01*
X78559207Y-121484598D01*
X78566320Y-121508047D01*
X78577871Y-121529658D01*
X78593416Y-121548600D01*
X78612353Y-121564141D01*
X78631878Y-121577187D01*
X78673665Y-121618974D01*
X78706496Y-121668110D01*
X78729111Y-121722706D01*
X78740639Y-121780666D01*
X78740639Y-121839760D01*
X78729111Y-121897720D01*
X78706496Y-121952316D01*
X78673665Y-122001452D01*
X78631878Y-122043239D01*
X78612353Y-122056285D01*
X78593417Y-122071825D01*
X78577872Y-122090766D01*
X78566320Y-122112377D01*
X78559207Y-122135826D01*
X78556805Y-122160212D01*
X78559207Y-122184598D01*
X78566320Y-122208047D01*
X78577871Y-122229658D01*
X78593416Y-122248600D01*
X78612353Y-122264141D01*
X78631878Y-122277187D01*
X78673665Y-122318974D01*
X78706496Y-122368110D01*
X78729111Y-122422706D01*
X78740639Y-122480666D01*
X78740639Y-122539760D01*
X78729111Y-122597720D01*
X78706496Y-122652316D01*
X78673665Y-122701452D01*
X78631878Y-122743239D01*
X78582742Y-122776070D01*
X78528146Y-122798685D01*
X78470186Y-122810213D01*
X78411092Y-122810213D01*
X78353132Y-122798685D01*
X78298536Y-122776070D01*
X78249400Y-122743239D01*
X78207613Y-122701452D01*
X78174782Y-122652316D01*
X78152167Y-122597720D01*
X78146753Y-122570499D01*
X78139642Y-122547057D01*
X78128091Y-122525446D01*
X78112546Y-122506505D01*
X78093604Y-122490959D01*
X78071993Y-122479408D01*
X78048544Y-122472295D01*
X78024158Y-122469893D01*
X77999772Y-122472295D01*
X77976323Y-122479408D01*
X77954712Y-122490959D01*
X77935771Y-122506504D01*
X77920225Y-122525446D01*
X77908676Y-122547053D01*
X77906496Y-122552316D01*
X77873665Y-122601452D01*
X77831878Y-122643239D01*
X77782742Y-122676070D01*
X77728146Y-122698685D01*
X77670186Y-122710213D01*
X77611092Y-122710213D01*
X77553132Y-122698685D01*
X77498536Y-122676070D01*
X77449400Y-122643239D01*
X77407613Y-122601452D01*
X77374782Y-122552316D01*
X77352167Y-122497720D01*
X77340639Y-122439760D01*
X77340639Y-122380666D01*
X77352167Y-122322706D01*
X77374782Y-122268110D01*
X77407613Y-122218974D01*
X77449400Y-122177187D01*
X77468925Y-122164141D01*
X77487861Y-122148601D01*
X77503406Y-122129660D01*
X77514958Y-122108049D01*
X77522071Y-122084600D01*
X77524473Y-122060214D01*
X77524473Y-122060212D01*
X77756805Y-122060212D01*
X77759207Y-122084598D01*
X77766320Y-122108047D01*
X77777871Y-122129658D01*
X77793416Y-122148600D01*
X77812353Y-122164141D01*
X77831878Y-122177187D01*
X77873665Y-122218974D01*
X77906496Y-122268110D01*
X77929111Y-122322706D01*
X77934525Y-122349927D01*
X77941636Y-122373369D01*
X77953187Y-122394980D01*
X77968732Y-122413921D01*
X77987674Y-122429467D01*
X78009285Y-122441018D01*
X78032734Y-122448131D01*
X78057120Y-122450533D01*
X78081506Y-122448131D01*
X78104955Y-122441018D01*
X78126566Y-122429467D01*
X78145507Y-122413922D01*
X78161053Y-122394980D01*
X78172603Y-122373371D01*
X78174782Y-122368111D01*
X78174782Y-122368110D01*
X78207613Y-122318974D01*
X78249400Y-122277187D01*
X78268925Y-122264141D01*
X78287861Y-122248601D01*
X78303406Y-122229660D01*
X78314958Y-122208049D01*
X78322071Y-122184600D01*
X78324473Y-122160214D01*
X78322071Y-122135828D01*
X78314958Y-122112379D01*
X78303407Y-122090768D01*
X78287862Y-122071826D01*
X78268925Y-122056285D01*
X78249400Y-122043239D01*
X78207613Y-122001452D01*
X78174782Y-121952316D01*
X78152167Y-121897720D01*
X78146753Y-121870499D01*
X78139642Y-121847057D01*
X78128091Y-121825446D01*
X78112546Y-121806505D01*
X78093604Y-121790959D01*
X78071993Y-121779408D01*
X78048544Y-121772295D01*
X78024158Y-121769893D01*
X77999772Y-121772295D01*
X77976323Y-121779408D01*
X77954712Y-121790959D01*
X77935771Y-121806504D01*
X77920225Y-121825446D01*
X77908676Y-121847053D01*
X77906496Y-121852316D01*
X77873665Y-121901452D01*
X77831878Y-121943239D01*
X77812353Y-121956285D01*
X77793417Y-121971825D01*
X77777872Y-121990766D01*
X77766320Y-122012377D01*
X77759207Y-122035826D01*
X77756805Y-122060212D01*
X77524473Y-122060212D01*
X77522071Y-122035828D01*
X77514958Y-122012379D01*
X77503407Y-121990768D01*
X77487862Y-121971826D01*
X77468925Y-121956285D01*
X77449400Y-121943239D01*
X77407613Y-121901452D01*
X77374782Y-121852316D01*
X77352167Y-121797720D01*
X77340639Y-121739760D01*
X77340639Y-121680666D01*
X77352167Y-121622706D01*
X77374782Y-121568110D01*
X77407613Y-121518974D01*
X77449400Y-121477187D01*
X77468925Y-121464141D01*
X77487861Y-121448601D01*
X77503406Y-121429660D01*
X77514958Y-121408049D01*
X77522071Y-121384600D01*
X77524473Y-121360214D01*
X77524473Y-121360212D01*
X77756805Y-121360212D01*
X77759207Y-121384598D01*
X77766320Y-121408047D01*
X77777871Y-121429658D01*
X77793416Y-121448600D01*
X77812353Y-121464141D01*
X77831878Y-121477187D01*
X77873665Y-121518974D01*
X77906496Y-121568110D01*
X77929111Y-121622706D01*
X77934525Y-121649927D01*
X77941636Y-121673369D01*
X77953187Y-121694980D01*
X77968732Y-121713921D01*
X77987674Y-121729467D01*
X78009285Y-121741018D01*
X78032734Y-121748131D01*
X78057120Y-121750533D01*
X78081506Y-121748131D01*
X78104955Y-121741018D01*
X78126566Y-121729467D01*
X78145507Y-121713922D01*
X78161053Y-121694980D01*
X78172603Y-121673371D01*
X78174782Y-121668111D01*
X78174782Y-121668110D01*
X78207613Y-121618974D01*
X78249400Y-121577187D01*
X78268925Y-121564141D01*
X78287861Y-121548601D01*
X78303406Y-121529660D01*
X78314958Y-121508049D01*
X78322071Y-121484600D01*
X78324473Y-121460214D01*
X78322071Y-121435828D01*
X78314958Y-121412379D01*
X78303407Y-121390768D01*
X78287862Y-121371826D01*
X78268925Y-121356285D01*
X78249400Y-121343239D01*
X78207613Y-121301452D01*
X78174782Y-121252316D01*
X78152167Y-121197720D01*
X78146753Y-121170499D01*
X78139642Y-121147057D01*
X78128091Y-121125446D01*
X78112546Y-121106505D01*
X78093604Y-121090959D01*
X78071993Y-121079408D01*
X78048544Y-121072295D01*
X78024158Y-121069893D01*
X77999772Y-121072295D01*
X77976323Y-121079408D01*
X77954712Y-121090959D01*
X77935771Y-121106504D01*
X77920225Y-121125446D01*
X77908676Y-121147053D01*
X77906496Y-121152316D01*
X77873665Y-121201452D01*
X77831878Y-121243239D01*
X77812353Y-121256285D01*
X77793417Y-121271825D01*
X77777872Y-121290766D01*
X77766320Y-121312377D01*
X77759207Y-121335826D01*
X77756805Y-121360212D01*
X77524473Y-121360212D01*
X77522071Y-121335828D01*
X77514958Y-121312379D01*
X77503407Y-121290768D01*
X77487862Y-121271826D01*
X77468925Y-121256285D01*
X77449400Y-121243239D01*
X77407613Y-121201452D01*
X77374782Y-121152316D01*
X77352167Y-121097720D01*
X77340639Y-121039760D01*
X77340639Y-120980666D01*
X77352167Y-120922706D01*
X77374782Y-120868110D01*
X77407613Y-120818974D01*
X77449400Y-120777187D01*
X77468925Y-120764141D01*
X77487861Y-120748601D01*
X77503406Y-120729660D01*
X77514958Y-120708049D01*
X77522071Y-120684600D01*
X77524473Y-120660214D01*
X77524473Y-120660212D01*
X77756805Y-120660212D01*
X77759207Y-120684598D01*
X77766320Y-120708047D01*
X77777871Y-120729658D01*
X77793416Y-120748600D01*
X77812353Y-120764141D01*
X77831878Y-120777187D01*
X77873665Y-120818974D01*
X77906496Y-120868110D01*
X77929111Y-120922706D01*
X77934525Y-120949927D01*
X77941636Y-120973369D01*
X77953187Y-120994980D01*
X77968732Y-121013921D01*
X77987674Y-121029467D01*
X78009285Y-121041018D01*
X78032734Y-121048131D01*
X78057120Y-121050533D01*
X78081506Y-121048131D01*
X78104955Y-121041018D01*
X78126566Y-121029467D01*
X78145507Y-121013922D01*
X78161053Y-120994980D01*
X78172603Y-120973371D01*
X78174782Y-120968111D01*
X78174782Y-120968110D01*
X78207613Y-120918974D01*
X78249400Y-120877187D01*
X78268925Y-120864141D01*
X78287861Y-120848601D01*
X78303406Y-120829660D01*
X78314958Y-120808049D01*
X78322071Y-120784600D01*
X78324473Y-120760214D01*
X78322071Y-120735828D01*
X78314958Y-120712379D01*
X78303407Y-120690768D01*
X78287862Y-120671826D01*
X78268925Y-120656285D01*
X78249400Y-120643239D01*
X78207613Y-120601452D01*
X78174782Y-120552316D01*
X78152167Y-120497720D01*
X78146753Y-120470499D01*
X78139642Y-120447057D01*
X78128091Y-120425446D01*
X78112546Y-120406505D01*
X78093604Y-120390959D01*
X78071993Y-120379408D01*
X78048544Y-120372295D01*
X78024158Y-120369893D01*
X77999772Y-120372295D01*
X77976323Y-120379408D01*
X77954712Y-120390959D01*
X77935771Y-120406504D01*
X77920225Y-120425446D01*
X77908676Y-120447053D01*
X77906496Y-120452316D01*
X77873665Y-120501452D01*
X77831878Y-120543239D01*
X77812353Y-120556285D01*
X77793417Y-120571825D01*
X77777872Y-120590766D01*
X77766320Y-120612377D01*
X77759207Y-120635826D01*
X77756805Y-120660212D01*
X77524473Y-120660212D01*
X77522071Y-120635828D01*
X77514958Y-120612379D01*
X77503407Y-120590768D01*
X77487862Y-120571826D01*
X77468925Y-120556285D01*
X77449400Y-120543239D01*
X77407613Y-120501452D01*
X77374782Y-120452316D01*
X77352167Y-120397720D01*
X77340639Y-120339760D01*
X77340639Y-120280666D01*
X77352167Y-120222706D01*
X77374782Y-120168110D01*
X77407613Y-120118974D01*
X77449400Y-120077187D01*
X77498536Y-120044356D01*
X77553132Y-120021741D01*
X77611092Y-120010213D01*
X77670186Y-120010213D01*
X77728146Y-120021741D01*
X77728146Y-120021741D01*
G37*
G36*
X53996032Y-120344469D02*
G01*
X54079843Y-120369893D01*
X54184535Y-120401651D01*
X54184537Y-120401652D01*
X54358258Y-120494507D01*
X54510528Y-120619472D01*
X54635493Y-120771742D01*
X54691854Y-120877187D01*
X54728349Y-120945465D01*
X54736814Y-120973371D01*
X54785531Y-121133968D01*
X54804838Y-121330000D01*
X54785531Y-121526032D01*
X54770013Y-121577186D01*
X54740837Y-121673369D01*
X54728348Y-121714537D01*
X54635493Y-121888258D01*
X54510528Y-122040528D01*
X54358258Y-122165493D01*
X54184537Y-122258348D01*
X54184535Y-122258349D01*
X54122434Y-122277187D01*
X53996032Y-122315531D01*
X53849124Y-122330000D01*
X53150876Y-122330000D01*
X53003968Y-122315531D01*
X52877566Y-122277187D01*
X52815465Y-122258349D01*
X52815463Y-122258348D01*
X52641742Y-122165493D01*
X52489472Y-122040528D01*
X52364507Y-121888258D01*
X52271652Y-121714537D01*
X52259164Y-121673369D01*
X52229987Y-121577186D01*
X52214469Y-121526032D01*
X52195162Y-121330000D01*
X52214469Y-121133968D01*
X52263186Y-120973371D01*
X52271651Y-120945465D01*
X52308146Y-120877187D01*
X52364507Y-120771742D01*
X52489472Y-120619472D01*
X52641742Y-120494507D01*
X52815463Y-120401652D01*
X52815465Y-120401651D01*
X52920157Y-120369893D01*
X53003968Y-120344469D01*
X53150876Y-120330000D01*
X53849124Y-120330000D01*
X53996032Y-120344469D01*
X53996032Y-120344469D01*
G37*
G36*
X53996032Y-117804469D02*
G01*
X54090284Y-117833060D01*
X54184535Y-117861651D01*
X54184537Y-117861652D01*
X54358258Y-117954507D01*
X54510528Y-118079472D01*
X54635493Y-118231742D01*
X54728348Y-118405463D01*
X54785531Y-118593968D01*
X54804838Y-118790000D01*
X54785531Y-118986032D01*
X54728348Y-119174537D01*
X54635493Y-119348258D01*
X54510528Y-119500528D01*
X54358258Y-119625493D01*
X54184537Y-119718348D01*
X54184535Y-119718349D01*
X54090285Y-119746939D01*
X53996032Y-119775531D01*
X53849124Y-119790000D01*
X53150876Y-119790000D01*
X53003968Y-119775531D01*
X52909715Y-119746939D01*
X52815465Y-119718349D01*
X52815463Y-119718348D01*
X52641742Y-119625493D01*
X52489472Y-119500528D01*
X52364507Y-119348258D01*
X52271652Y-119174537D01*
X52214469Y-118986032D01*
X52195162Y-118790000D01*
X52214469Y-118593968D01*
X52271652Y-118405463D01*
X52364507Y-118231742D01*
X52489472Y-118079472D01*
X52641742Y-117954507D01*
X52815463Y-117861652D01*
X52815465Y-117861651D01*
X52909716Y-117833060D01*
X53003968Y-117804469D01*
X53150876Y-117790000D01*
X53849124Y-117790000D01*
X53996032Y-117804469D01*
X53996032Y-117804469D01*
G37*
G36*
X54800000Y-109350000D02*
G01*
X52200000Y-109350000D01*
X52200000Y-107350000D01*
X54800000Y-107350000D01*
X54800000Y-109350000D01*
X54800000Y-109350000D01*
G37*
G36*
X53996032Y-104824469D02*
G01*
X54090284Y-104853060D01*
X54184535Y-104881651D01*
X54184537Y-104881652D01*
X54358258Y-104974507D01*
X54510528Y-105099472D01*
X54635493Y-105251742D01*
X54728348Y-105425463D01*
X54785531Y-105613968D01*
X54804838Y-105810000D01*
X54785531Y-106006032D01*
X54728348Y-106194537D01*
X54635493Y-106368258D01*
X54510528Y-106520528D01*
X54358258Y-106645493D01*
X54184537Y-106738348D01*
X54184535Y-106738349D01*
X54090285Y-106766939D01*
X53996032Y-106795531D01*
X53849124Y-106810000D01*
X53150876Y-106810000D01*
X53003968Y-106795531D01*
X52909715Y-106766939D01*
X52815465Y-106738349D01*
X52815463Y-106738348D01*
X52641742Y-106645493D01*
X52489472Y-106520528D01*
X52364507Y-106368258D01*
X52271652Y-106194537D01*
X52214469Y-106006032D01*
X52195162Y-105810000D01*
X52214469Y-105613968D01*
X52271652Y-105425463D01*
X52364507Y-105251742D01*
X52489472Y-105099472D01*
X52641742Y-104974507D01*
X52815463Y-104881652D01*
X52815465Y-104881651D01*
X52909716Y-104853060D01*
X53003968Y-104824469D01*
X53150876Y-104810000D01*
X53849124Y-104810000D01*
X53996032Y-104824469D01*
X53996032Y-104824469D01*
G37*
G36*
X53996032Y-102284469D02*
G01*
X54090284Y-102313060D01*
X54184535Y-102341651D01*
X54184537Y-102341652D01*
X54358258Y-102434507D01*
X54510528Y-102559472D01*
X54635493Y-102711742D01*
X54728348Y-102885463D01*
X54785531Y-103073968D01*
X54804838Y-103270000D01*
X54785531Y-103466032D01*
X54728348Y-103654537D01*
X54635493Y-103828258D01*
X54510528Y-103980528D01*
X54358258Y-104105493D01*
X54184537Y-104198348D01*
X54184535Y-104198349D01*
X54090285Y-104226939D01*
X53996032Y-104255531D01*
X53849124Y-104270000D01*
X53150876Y-104270000D01*
X53003968Y-104255531D01*
X52909715Y-104226939D01*
X52815465Y-104198349D01*
X52815463Y-104198348D01*
X52641742Y-104105493D01*
X52489472Y-103980528D01*
X52364507Y-103828258D01*
X52271652Y-103654537D01*
X52214469Y-103466032D01*
X52195162Y-103270000D01*
X52214469Y-103073968D01*
X52271652Y-102885463D01*
X52364507Y-102711742D01*
X52489472Y-102559472D01*
X52641742Y-102434507D01*
X52815463Y-102341652D01*
X52815465Y-102341651D01*
X52909716Y-102313060D01*
X53003968Y-102284469D01*
X53150876Y-102270000D01*
X53849124Y-102270000D01*
X53996032Y-102284469D01*
X53996032Y-102284469D01*
G37*
G36*
X53996032Y-99744469D02*
G01*
X54090284Y-99773060D01*
X54184535Y-99801651D01*
X54184537Y-99801652D01*
X54358258Y-99894507D01*
X54510528Y-100019472D01*
X54635493Y-100171742D01*
X54728348Y-100345463D01*
X54785531Y-100533968D01*
X54804838Y-100730000D01*
X54785531Y-100926032D01*
X54728348Y-101114537D01*
X54635493Y-101288258D01*
X54510528Y-101440528D01*
X54358258Y-101565493D01*
X54184537Y-101658348D01*
X54184535Y-101658349D01*
X54090285Y-101686939D01*
X53996032Y-101715531D01*
X53849124Y-101730000D01*
X53150876Y-101730000D01*
X53003968Y-101715531D01*
X52909715Y-101686939D01*
X52815465Y-101658349D01*
X52815463Y-101658348D01*
X52641742Y-101565493D01*
X52489472Y-101440528D01*
X52364507Y-101288258D01*
X52271652Y-101114537D01*
X52214469Y-100926032D01*
X52195162Y-100730000D01*
X52214469Y-100533968D01*
X52271652Y-100345463D01*
X52364507Y-100171742D01*
X52489472Y-100019472D01*
X52641742Y-99894507D01*
X52815463Y-99801652D01*
X52815465Y-99801651D01*
X52909716Y-99773060D01*
X53003968Y-99744469D01*
X53150876Y-99730000D01*
X53849124Y-99730000D01*
X53996032Y-99744469D01*
X53996032Y-99744469D01*
G37*
G36*
X53996032Y-97204469D02*
G01*
X54090284Y-97233060D01*
X54184535Y-97261651D01*
X54184537Y-97261652D01*
X54358258Y-97354507D01*
X54510528Y-97479472D01*
X54635493Y-97631742D01*
X54728348Y-97805463D01*
X54785531Y-97993968D01*
X54804838Y-98190000D01*
X54785531Y-98386032D01*
X54728348Y-98574537D01*
X54635493Y-98748258D01*
X54510528Y-98900528D01*
X54358258Y-99025493D01*
X54184537Y-99118348D01*
X54184535Y-99118349D01*
X54090285Y-99146939D01*
X53996032Y-99175531D01*
X53849124Y-99190000D01*
X53150876Y-99190000D01*
X53003968Y-99175531D01*
X52909715Y-99146939D01*
X52815465Y-99118349D01*
X52815463Y-99118348D01*
X52641742Y-99025493D01*
X52489472Y-98900528D01*
X52364507Y-98748258D01*
X52271652Y-98574537D01*
X52214469Y-98386032D01*
X52195162Y-98190000D01*
X52214469Y-97993968D01*
X52271652Y-97805463D01*
X52364507Y-97631742D01*
X52489472Y-97479472D01*
X52641742Y-97354507D01*
X52815463Y-97261652D01*
X52815465Y-97261651D01*
X52909716Y-97233060D01*
X53003968Y-97204469D01*
X53150876Y-97190000D01*
X53849124Y-97190000D01*
X53996032Y-97204469D01*
X53996032Y-97204469D01*
G37*
G36*
X53996032Y-94664469D02*
G01*
X54090285Y-94693061D01*
X54184535Y-94721651D01*
X54184537Y-94721652D01*
X54358258Y-94814507D01*
X54510528Y-94939472D01*
X54635493Y-95091742D01*
X54728348Y-95265463D01*
X54785531Y-95453968D01*
X54804838Y-95650000D01*
X54785531Y-95846032D01*
X54728348Y-96034537D01*
X54635493Y-96208258D01*
X54510528Y-96360528D01*
X54358258Y-96485493D01*
X54184537Y-96578348D01*
X54184535Y-96578349D01*
X54090284Y-96606940D01*
X53996032Y-96635531D01*
X53849124Y-96650000D01*
X53150876Y-96650000D01*
X53003968Y-96635531D01*
X52909716Y-96606940D01*
X52815465Y-96578349D01*
X52815463Y-96578348D01*
X52641742Y-96485493D01*
X52489472Y-96360528D01*
X52364507Y-96208258D01*
X52271652Y-96034537D01*
X52214469Y-95846032D01*
X52195162Y-95650000D01*
X52214469Y-95453968D01*
X52271652Y-95265463D01*
X52364507Y-95091742D01*
X52489472Y-94939472D01*
X52641742Y-94814507D01*
X52815463Y-94721652D01*
X52815465Y-94721651D01*
X52909715Y-94693061D01*
X53003968Y-94664469D01*
X53150876Y-94650000D01*
X53849124Y-94650000D01*
X53996032Y-94664469D01*
X53996032Y-94664469D01*
G37*
G36*
X53996032Y-92124469D02*
G01*
X54090284Y-92153060D01*
X54184535Y-92181651D01*
X54184537Y-92181652D01*
X54358258Y-92274507D01*
X54510528Y-92399472D01*
X54635493Y-92551742D01*
X54728348Y-92725463D01*
X54785531Y-92913968D01*
X54804838Y-93110000D01*
X54785531Y-93306032D01*
X54728348Y-93494537D01*
X54635493Y-93668258D01*
X54510528Y-93820528D01*
X54358258Y-93945493D01*
X54184537Y-94038348D01*
X54184535Y-94038349D01*
X54090285Y-94066939D01*
X53996032Y-94095531D01*
X53849124Y-94110000D01*
X53150876Y-94110000D01*
X53003968Y-94095531D01*
X52909715Y-94066939D01*
X52815465Y-94038349D01*
X52815463Y-94038348D01*
X52641742Y-93945493D01*
X52489472Y-93820528D01*
X52364507Y-93668258D01*
X52271652Y-93494537D01*
X52214469Y-93306032D01*
X52195162Y-93110000D01*
X52214469Y-92913968D01*
X52271652Y-92725463D01*
X52364507Y-92551742D01*
X52489472Y-92399472D01*
X52641742Y-92274507D01*
X52815463Y-92181652D01*
X52815465Y-92181651D01*
X52909716Y-92153060D01*
X53003968Y-92124469D01*
X53150876Y-92110000D01*
X53849124Y-92110000D01*
X53996032Y-92124469D01*
X53996032Y-92124469D01*
G37*
G36*
X53996032Y-89584469D02*
G01*
X54090285Y-89613061D01*
X54184535Y-89641651D01*
X54184537Y-89641652D01*
X54358258Y-89734507D01*
X54510528Y-89859472D01*
X54635493Y-90011742D01*
X54728348Y-90185463D01*
X54785531Y-90373968D01*
X54804838Y-90570000D01*
X54785531Y-90766032D01*
X54728348Y-90954537D01*
X54635493Y-91128258D01*
X54510528Y-91280528D01*
X54358258Y-91405493D01*
X54184537Y-91498348D01*
X54184535Y-91498349D01*
X54090284Y-91526940D01*
X53996032Y-91555531D01*
X53849124Y-91570000D01*
X53150876Y-91570000D01*
X53003968Y-91555531D01*
X52909716Y-91526940D01*
X52815465Y-91498349D01*
X52815463Y-91498348D01*
X52641742Y-91405493D01*
X52489472Y-91280528D01*
X52364507Y-91128258D01*
X52271652Y-90954537D01*
X52214469Y-90766032D01*
X52195162Y-90570000D01*
X52214469Y-90373968D01*
X52271652Y-90185463D01*
X52364507Y-90011742D01*
X52489472Y-89859472D01*
X52641742Y-89734507D01*
X52815463Y-89641652D01*
X52815465Y-89641651D01*
X52909715Y-89613061D01*
X53003968Y-89584469D01*
X53150876Y-89570000D01*
X53849124Y-89570000D01*
X53996032Y-89584469D01*
X53996032Y-89584469D01*
G37*
G36*
X54800000Y-83480000D02*
G01*
X52200000Y-83480000D01*
X52200000Y-81480000D01*
X54800000Y-81480000D01*
X54800000Y-83480000D01*
X54800000Y-83480000D01*
G37*
G36*
X53996032Y-78954469D02*
G01*
X54090285Y-78983061D01*
X54184535Y-79011651D01*
X54184537Y-79011652D01*
X54358258Y-79104507D01*
X54510528Y-79229472D01*
X54635493Y-79381742D01*
X54728348Y-79555463D01*
X54785531Y-79743968D01*
X54804838Y-79940000D01*
X54785531Y-80136032D01*
X54728348Y-80324537D01*
X54635493Y-80498258D01*
X54510528Y-80650528D01*
X54358258Y-80775493D01*
X54184537Y-80868348D01*
X54184535Y-80868349D01*
X54090284Y-80896940D01*
X53996032Y-80925531D01*
X53849124Y-80940000D01*
X53150876Y-80940000D01*
X53003968Y-80925531D01*
X52909716Y-80896940D01*
X52815465Y-80868349D01*
X52815463Y-80868348D01*
X52641742Y-80775493D01*
X52489472Y-80650528D01*
X52364507Y-80498258D01*
X52271652Y-80324537D01*
X52214469Y-80136032D01*
X52195162Y-79940000D01*
X52214469Y-79743968D01*
X52271652Y-79555463D01*
X52364507Y-79381742D01*
X52489472Y-79229472D01*
X52641742Y-79104507D01*
X52815463Y-79011652D01*
X52815465Y-79011651D01*
X52909715Y-78983061D01*
X53003968Y-78954469D01*
X53150876Y-78940000D01*
X53849124Y-78940000D01*
X53996032Y-78954469D01*
X53996032Y-78954469D01*
G37*
G36*
X53996032Y-76414469D02*
G01*
X54090285Y-76443061D01*
X54184535Y-76471651D01*
X54184537Y-76471652D01*
X54358258Y-76564507D01*
X54510528Y-76689472D01*
X54635493Y-76841742D01*
X54728348Y-77015463D01*
X54785531Y-77203968D01*
X54804838Y-77400000D01*
X54785531Y-77596032D01*
X54728348Y-77784537D01*
X54635493Y-77958258D01*
X54510528Y-78110528D01*
X54358258Y-78235493D01*
X54184537Y-78328348D01*
X54184535Y-78328349D01*
X54090285Y-78356939D01*
X53996032Y-78385531D01*
X53849124Y-78400000D01*
X53150876Y-78400000D01*
X53003968Y-78385531D01*
X52909716Y-78356940D01*
X52815465Y-78328349D01*
X52815463Y-78328348D01*
X52641742Y-78235493D01*
X52489472Y-78110528D01*
X52364507Y-77958258D01*
X52271652Y-77784537D01*
X52214469Y-77596032D01*
X52195162Y-77400000D01*
X52214469Y-77203968D01*
X52271652Y-77015463D01*
X52364507Y-76841742D01*
X52489472Y-76689472D01*
X52641742Y-76564507D01*
X52815463Y-76471652D01*
X52815465Y-76471651D01*
X52909715Y-76443061D01*
X53003968Y-76414469D01*
X53150876Y-76400000D01*
X53849124Y-76400000D01*
X53996032Y-76414469D01*
X53996032Y-76414469D01*
G37*
G36*
X53996032Y-73874469D02*
G01*
X54090284Y-73903060D01*
X54184535Y-73931651D01*
X54184537Y-73931652D01*
X54358258Y-74024507D01*
X54510528Y-74149472D01*
X54635493Y-74301742D01*
X54728348Y-74475463D01*
X54785531Y-74663968D01*
X54804838Y-74860000D01*
X54785531Y-75056032D01*
X54728348Y-75244537D01*
X54635493Y-75418258D01*
X54510528Y-75570528D01*
X54358258Y-75695493D01*
X54184537Y-75788348D01*
X54184535Y-75788349D01*
X54090285Y-75816939D01*
X53996032Y-75845531D01*
X53849124Y-75860000D01*
X53150876Y-75860000D01*
X53003968Y-75845531D01*
X52909715Y-75816939D01*
X52815465Y-75788349D01*
X52815463Y-75788348D01*
X52641742Y-75695493D01*
X52489472Y-75570528D01*
X52364507Y-75418258D01*
X52271652Y-75244537D01*
X52214469Y-75056032D01*
X52195162Y-74860000D01*
X52214469Y-74663968D01*
X52271652Y-74475463D01*
X52364507Y-74301742D01*
X52489472Y-74149472D01*
X52641742Y-74024507D01*
X52815463Y-73931652D01*
X52815465Y-73931651D01*
X52909715Y-73903061D01*
X53003968Y-73874469D01*
X53150876Y-73860000D01*
X53849124Y-73860000D01*
X53996032Y-73874469D01*
X53996032Y-73874469D01*
G37*
G36*
X124675000Y-75675000D02*
G01*
X123325000Y-75675000D01*
X123325000Y-74325000D01*
X124675000Y-74325000D01*
X124675000Y-75675000D01*
X124675000Y-75675000D01*
G37*
G36*
X126132323Y-74334767D02*
G01*
X126259561Y-74373364D01*
X126376824Y-74436042D01*
X126479606Y-74520394D01*
X126563958Y-74623176D01*
X126626636Y-74740439D01*
X126665233Y-74867677D01*
X126678266Y-75000000D01*
X126665233Y-75132323D01*
X126626636Y-75259561D01*
X126563958Y-75376824D01*
X126479606Y-75479606D01*
X126376824Y-75563958D01*
X126259561Y-75626636D01*
X126132323Y-75665233D01*
X126033159Y-75675000D01*
X125966841Y-75675000D01*
X125867677Y-75665233D01*
X125740439Y-75626636D01*
X125623176Y-75563958D01*
X125520394Y-75479606D01*
X125436042Y-75376824D01*
X125373364Y-75259561D01*
X125334767Y-75132323D01*
X125321734Y-75000000D01*
X125334767Y-74867677D01*
X125373364Y-74740439D01*
X125436042Y-74623176D01*
X125520394Y-74520394D01*
X125623176Y-74436042D01*
X125740439Y-74373364D01*
X125867677Y-74334767D01*
X125966841Y-74325000D01*
X126033159Y-74325000D01*
X126132323Y-74334767D01*
X126132323Y-74334767D01*
G37*
G36*
X124132323Y-72334767D02*
G01*
X124259561Y-72373364D01*
X124376824Y-72436042D01*
X124479606Y-72520394D01*
X124563958Y-72623176D01*
X124626636Y-72740439D01*
X124665233Y-72867677D01*
X124678266Y-73000000D01*
X124665233Y-73132323D01*
X124626636Y-73259561D01*
X124563958Y-73376824D01*
X124479606Y-73479606D01*
X124376824Y-73563958D01*
X124259561Y-73626636D01*
X124132323Y-73665233D01*
X124033159Y-73675000D01*
X123966841Y-73675000D01*
X123867677Y-73665233D01*
X123740439Y-73626636D01*
X123623176Y-73563958D01*
X123520394Y-73479606D01*
X123436042Y-73376824D01*
X123373364Y-73259561D01*
X123334767Y-73132323D01*
X123321734Y-73000000D01*
X123334767Y-72867677D01*
X123373364Y-72740439D01*
X123436042Y-72623176D01*
X123520394Y-72520394D01*
X123623176Y-72436042D01*
X123740439Y-72373364D01*
X123867677Y-72334767D01*
X123966841Y-72325000D01*
X124033159Y-72325000D01*
X124132323Y-72334767D01*
X124132323Y-72334767D01*
G37*
G36*
X126132323Y-72334767D02*
G01*
X126259561Y-72373364D01*
X126376824Y-72436042D01*
X126479606Y-72520394D01*
X126563958Y-72623176D01*
X126626636Y-72740439D01*
X126665233Y-72867677D01*
X126678266Y-73000000D01*
X126665233Y-73132323D01*
X126626636Y-73259561D01*
X126563958Y-73376824D01*
X126479606Y-73479606D01*
X126376824Y-73563958D01*
X126259561Y-73626636D01*
X126132323Y-73665233D01*
X126033159Y-73675000D01*
X125966841Y-73675000D01*
X125867677Y-73665233D01*
X125740439Y-73626636D01*
X125623176Y-73563958D01*
X125520394Y-73479606D01*
X125436042Y-73376824D01*
X125373364Y-73259561D01*
X125334767Y-73132323D01*
X125321734Y-73000000D01*
X125334767Y-72867677D01*
X125373364Y-72740439D01*
X125436042Y-72623176D01*
X125520394Y-72520394D01*
X125623176Y-72436042D01*
X125740439Y-72373364D01*
X125867677Y-72334767D01*
X125966841Y-72325000D01*
X126033159Y-72325000D01*
X126132323Y-72334767D01*
X126132323Y-72334767D01*
G37*
G36*
X53996032Y-71334469D02*
G01*
X54090284Y-71363060D01*
X54184535Y-71391651D01*
X54184537Y-71391652D01*
X54358258Y-71484507D01*
X54510528Y-71609472D01*
X54635493Y-71761742D01*
X54728348Y-71935463D01*
X54785531Y-72123968D01*
X54804838Y-72320000D01*
X54785531Y-72516032D01*
X54728348Y-72704537D01*
X54635493Y-72878258D01*
X54510528Y-73030528D01*
X54358258Y-73155493D01*
X54184537Y-73248348D01*
X54184535Y-73248349D01*
X54090284Y-73276940D01*
X53996032Y-73305531D01*
X53849124Y-73320000D01*
X53150876Y-73320000D01*
X53003968Y-73305531D01*
X52909715Y-73276939D01*
X52815465Y-73248349D01*
X52815463Y-73248348D01*
X52641742Y-73155493D01*
X52489472Y-73030528D01*
X52364507Y-72878258D01*
X52271652Y-72704537D01*
X52214469Y-72516032D01*
X52195162Y-72320000D01*
X52214469Y-72123968D01*
X52271652Y-71935463D01*
X52364507Y-71761742D01*
X52489472Y-71609472D01*
X52641742Y-71484507D01*
X52815463Y-71391652D01*
X52815465Y-71391651D01*
X52909716Y-71363060D01*
X53003968Y-71334469D01*
X53150876Y-71320000D01*
X53849124Y-71320000D01*
X53996032Y-71334469D01*
X53996032Y-71334469D01*
G37*
G36*
X124132323Y-70334767D02*
G01*
X124259561Y-70373364D01*
X124376824Y-70436042D01*
X124479606Y-70520394D01*
X124563958Y-70623176D01*
X124626636Y-70740439D01*
X124665233Y-70867677D01*
X124678266Y-71000000D01*
X124665233Y-71132323D01*
X124626636Y-71259561D01*
X124563958Y-71376824D01*
X124479606Y-71479606D01*
X124376824Y-71563958D01*
X124259561Y-71626636D01*
X124132323Y-71665233D01*
X124033159Y-71675000D01*
X123966841Y-71675000D01*
X123867677Y-71665233D01*
X123740439Y-71626636D01*
X123623176Y-71563958D01*
X123520394Y-71479606D01*
X123436042Y-71376824D01*
X123373364Y-71259561D01*
X123334767Y-71132323D01*
X123321734Y-71000000D01*
X123334767Y-70867677D01*
X123373364Y-70740439D01*
X123436042Y-70623176D01*
X123520394Y-70520394D01*
X123623176Y-70436042D01*
X123740439Y-70373364D01*
X123867677Y-70334767D01*
X123966841Y-70325000D01*
X124033159Y-70325000D01*
X124132323Y-70334767D01*
X124132323Y-70334767D01*
G37*
G36*
X126132323Y-70334767D02*
G01*
X126259561Y-70373364D01*
X126376824Y-70436042D01*
X126479606Y-70520394D01*
X126563958Y-70623176D01*
X126626636Y-70740439D01*
X126665233Y-70867677D01*
X126678266Y-71000000D01*
X126665233Y-71132323D01*
X126626636Y-71259561D01*
X126563958Y-71376824D01*
X126479606Y-71479606D01*
X126376824Y-71563958D01*
X126259561Y-71626636D01*
X126132323Y-71665233D01*
X126033159Y-71675000D01*
X125966841Y-71675000D01*
X125867677Y-71665233D01*
X125740439Y-71626636D01*
X125623176Y-71563958D01*
X125520394Y-71479606D01*
X125436042Y-71376824D01*
X125373364Y-71259561D01*
X125334767Y-71132323D01*
X125321734Y-71000000D01*
X125334767Y-70867677D01*
X125373364Y-70740439D01*
X125436042Y-70623176D01*
X125520394Y-70520394D01*
X125623176Y-70436042D01*
X125740439Y-70373364D01*
X125867677Y-70334767D01*
X125966841Y-70325000D01*
X126033159Y-70325000D01*
X126132323Y-70334767D01*
X126132323Y-70334767D01*
G37*
G36*
X124132323Y-68334767D02*
G01*
X124259561Y-68373364D01*
X124376824Y-68436042D01*
X124479606Y-68520394D01*
X124563958Y-68623176D01*
X124626636Y-68740439D01*
X124665233Y-68867677D01*
X124678266Y-69000000D01*
X124665233Y-69132323D01*
X124626636Y-69259561D01*
X124563958Y-69376824D01*
X124479606Y-69479606D01*
X124376824Y-69563958D01*
X124259561Y-69626636D01*
X124132323Y-69665233D01*
X124033159Y-69675000D01*
X123966841Y-69675000D01*
X123867677Y-69665233D01*
X123740439Y-69626636D01*
X123623176Y-69563958D01*
X123520394Y-69479606D01*
X123436042Y-69376824D01*
X123373364Y-69259561D01*
X123334767Y-69132323D01*
X123321734Y-69000000D01*
X123334767Y-68867677D01*
X123373364Y-68740439D01*
X123436042Y-68623176D01*
X123520394Y-68520394D01*
X123623176Y-68436042D01*
X123740439Y-68373364D01*
X123867677Y-68334767D01*
X123966841Y-68325000D01*
X124033159Y-68325000D01*
X124132323Y-68334767D01*
X124132323Y-68334767D01*
G37*
G36*
X126132323Y-68334767D02*
G01*
X126259561Y-68373364D01*
X126376824Y-68436042D01*
X126479606Y-68520394D01*
X126563958Y-68623176D01*
X126626636Y-68740439D01*
X126665233Y-68867677D01*
X126678266Y-69000000D01*
X126665233Y-69132323D01*
X126626636Y-69259561D01*
X126563958Y-69376824D01*
X126479606Y-69479606D01*
X126376824Y-69563958D01*
X126259561Y-69626636D01*
X126132323Y-69665233D01*
X126033159Y-69675000D01*
X125966841Y-69675000D01*
X125867677Y-69665233D01*
X125740439Y-69626636D01*
X125623176Y-69563958D01*
X125520394Y-69479606D01*
X125436042Y-69376824D01*
X125373364Y-69259561D01*
X125334767Y-69132323D01*
X125321734Y-69000000D01*
X125334767Y-68867677D01*
X125373364Y-68740439D01*
X125436042Y-68623176D01*
X125520394Y-68520394D01*
X125623176Y-68436042D01*
X125740439Y-68373364D01*
X125867677Y-68334767D01*
X125966841Y-68325000D01*
X126033159Y-68325000D01*
X126132323Y-68334767D01*
X126132323Y-68334767D01*
G37*
G36*
X124132323Y-66334767D02*
G01*
X124259561Y-66373364D01*
X124376824Y-66436042D01*
X124479606Y-66520394D01*
X124563958Y-66623176D01*
X124626636Y-66740439D01*
X124665233Y-66867677D01*
X124678266Y-67000000D01*
X124665233Y-67132323D01*
X124626636Y-67259561D01*
X124563958Y-67376824D01*
X124479606Y-67479606D01*
X124376824Y-67563958D01*
X124259561Y-67626636D01*
X124132323Y-67665233D01*
X124033159Y-67675000D01*
X123966841Y-67675000D01*
X123867677Y-67665233D01*
X123740439Y-67626636D01*
X123623176Y-67563958D01*
X123520394Y-67479606D01*
X123436042Y-67376824D01*
X123373364Y-67259561D01*
X123334767Y-67132323D01*
X123321734Y-67000000D01*
X123334767Y-66867677D01*
X123373364Y-66740439D01*
X123436042Y-66623176D01*
X123520394Y-66520394D01*
X123623176Y-66436042D01*
X123740439Y-66373364D01*
X123867677Y-66334767D01*
X123966841Y-66325000D01*
X124033159Y-66325000D01*
X124132323Y-66334767D01*
X124132323Y-66334767D01*
G37*
G36*
X126132323Y-66334767D02*
G01*
X126259561Y-66373364D01*
X126376824Y-66436042D01*
X126479606Y-66520394D01*
X126563958Y-66623176D01*
X126626636Y-66740439D01*
X126665233Y-66867677D01*
X126678266Y-67000000D01*
X126665233Y-67132323D01*
X126626636Y-67259561D01*
X126563958Y-67376824D01*
X126479606Y-67479606D01*
X126376824Y-67563958D01*
X126259561Y-67626636D01*
X126132323Y-67665233D01*
X126033159Y-67675000D01*
X125966841Y-67675000D01*
X125867677Y-67665233D01*
X125740439Y-67626636D01*
X125623176Y-67563958D01*
X125520394Y-67479606D01*
X125436042Y-67376824D01*
X125373364Y-67259561D01*
X125334767Y-67132323D01*
X125321734Y-67000000D01*
X125334767Y-66867677D01*
X125373364Y-66740439D01*
X125436042Y-66623176D01*
X125520394Y-66520394D01*
X125623176Y-66436042D01*
X125740439Y-66373364D01*
X125867677Y-66334767D01*
X125966841Y-66325000D01*
X126033159Y-66325000D01*
X126132323Y-66334767D01*
X126132323Y-66334767D01*
G37*
G36*
X126132323Y-64334767D02*
G01*
X126259561Y-64373364D01*
X126376824Y-64436042D01*
X126479606Y-64520394D01*
X126563958Y-64623176D01*
X126626636Y-64740439D01*
X126665233Y-64867677D01*
X126678266Y-65000000D01*
X126665233Y-65132323D01*
X126626636Y-65259561D01*
X126563958Y-65376824D01*
X126479606Y-65479606D01*
X126376824Y-65563958D01*
X126259561Y-65626636D01*
X126132323Y-65665233D01*
X126033159Y-65675000D01*
X125966841Y-65675000D01*
X125867677Y-65665233D01*
X125740439Y-65626636D01*
X125623176Y-65563958D01*
X125520394Y-65479606D01*
X125436042Y-65376824D01*
X125373364Y-65259561D01*
X125334767Y-65132323D01*
X125321734Y-65000000D01*
X125334767Y-64867677D01*
X125373364Y-64740439D01*
X125436042Y-64623176D01*
X125520394Y-64520394D01*
X125623176Y-64436042D01*
X125740439Y-64373364D01*
X125867677Y-64334767D01*
X125966841Y-64325000D01*
X126033159Y-64325000D01*
X126132323Y-64334767D01*
X126132323Y-64334767D01*
G37*
G36*
X124132323Y-64334767D02*
G01*
X124259561Y-64373364D01*
X124376824Y-64436042D01*
X124479606Y-64520394D01*
X124563958Y-64623176D01*
X124626636Y-64740439D01*
X124665233Y-64867677D01*
X124678266Y-65000000D01*
X124665233Y-65132323D01*
X124626636Y-65259561D01*
X124563958Y-65376824D01*
X124479606Y-65479606D01*
X124376824Y-65563958D01*
X124259561Y-65626636D01*
X124132323Y-65665233D01*
X124033159Y-65675000D01*
X123966841Y-65675000D01*
X123867677Y-65665233D01*
X123740439Y-65626636D01*
X123623176Y-65563958D01*
X123520394Y-65479606D01*
X123436042Y-65376824D01*
X123373364Y-65259561D01*
X123334767Y-65132323D01*
X123321734Y-65000000D01*
X123334767Y-64867677D01*
X123373364Y-64740439D01*
X123436042Y-64623176D01*
X123520394Y-64520394D01*
X123623176Y-64436042D01*
X123740439Y-64373364D01*
X123867677Y-64334767D01*
X123966841Y-64325000D01*
X124033159Y-64325000D01*
X124132323Y-64334767D01*
X124132323Y-64334767D01*
G37*
G36*
X54900000Y-65150000D02*
G01*
X52300000Y-65150000D01*
X52300000Y-63150000D01*
X54900000Y-63150000D01*
X54900000Y-65150000D01*
X54900000Y-65150000D01*
G37*
G36*
X124132323Y-62334767D02*
G01*
X124259561Y-62373364D01*
X124376824Y-62436042D01*
X124479606Y-62520394D01*
X124563958Y-62623176D01*
X124626636Y-62740439D01*
X124665233Y-62867677D01*
X124678266Y-63000000D01*
X124665233Y-63132323D01*
X124626636Y-63259561D01*
X124563958Y-63376824D01*
X124479606Y-63479606D01*
X124376824Y-63563958D01*
X124259561Y-63626636D01*
X124132323Y-63665233D01*
X124033159Y-63675000D01*
X123966841Y-63675000D01*
X123867677Y-63665233D01*
X123740439Y-63626636D01*
X123623176Y-63563958D01*
X123520394Y-63479606D01*
X123436042Y-63376824D01*
X123373364Y-63259561D01*
X123334767Y-63132323D01*
X123321734Y-63000000D01*
X123334767Y-62867677D01*
X123373364Y-62740439D01*
X123436042Y-62623176D01*
X123520394Y-62520394D01*
X123623176Y-62436042D01*
X123740439Y-62373364D01*
X123867677Y-62334767D01*
X123966841Y-62325000D01*
X124033159Y-62325000D01*
X124132323Y-62334767D01*
X124132323Y-62334767D01*
G37*
G36*
X126132323Y-62334767D02*
G01*
X126259561Y-62373364D01*
X126376824Y-62436042D01*
X126479606Y-62520394D01*
X126563958Y-62623176D01*
X126626636Y-62740439D01*
X126665233Y-62867677D01*
X126678266Y-63000000D01*
X126665233Y-63132323D01*
X126626636Y-63259561D01*
X126563958Y-63376824D01*
X126479606Y-63479606D01*
X126376824Y-63563958D01*
X126259561Y-63626636D01*
X126132323Y-63665233D01*
X126033159Y-63675000D01*
X125966841Y-63675000D01*
X125867677Y-63665233D01*
X125740439Y-63626636D01*
X125623176Y-63563958D01*
X125520394Y-63479606D01*
X125436042Y-63376824D01*
X125373364Y-63259561D01*
X125334767Y-63132323D01*
X125321734Y-63000000D01*
X125334767Y-62867677D01*
X125373364Y-62740439D01*
X125436042Y-62623176D01*
X125520394Y-62520394D01*
X125623176Y-62436042D01*
X125740439Y-62373364D01*
X125867677Y-62334767D01*
X125966841Y-62325000D01*
X126033159Y-62325000D01*
X126132323Y-62334767D01*
X126132323Y-62334767D01*
G37*
G36*
X54096032Y-60624469D02*
G01*
X54190285Y-60653061D01*
X54284535Y-60681651D01*
X54284537Y-60681652D01*
X54458258Y-60774507D01*
X54610528Y-60899472D01*
X54735493Y-61051742D01*
X54828348Y-61225463D01*
X54885531Y-61413968D01*
X54904838Y-61610000D01*
X54885531Y-61806032D01*
X54828348Y-61994537D01*
X54735493Y-62168258D01*
X54610528Y-62320528D01*
X54458258Y-62445493D01*
X54284537Y-62538348D01*
X54284535Y-62538349D01*
X54190285Y-62566939D01*
X54096032Y-62595531D01*
X53949124Y-62610000D01*
X53250876Y-62610000D01*
X53103968Y-62595531D01*
X53009715Y-62566939D01*
X52915465Y-62538349D01*
X52915463Y-62538348D01*
X52741742Y-62445493D01*
X52589472Y-62320528D01*
X52464507Y-62168258D01*
X52371652Y-61994537D01*
X52314469Y-61806032D01*
X52295162Y-61610000D01*
X52314469Y-61413968D01*
X52371652Y-61225463D01*
X52464507Y-61051742D01*
X52589472Y-60899472D01*
X52741742Y-60774507D01*
X52915463Y-60681652D01*
X52915465Y-60681651D01*
X53009715Y-60653061D01*
X53103968Y-60624469D01*
X53250876Y-60610000D01*
X53949124Y-60610000D01*
X54096032Y-60624469D01*
X54096032Y-60624469D01*
G37*
G36*
X126132323Y-60334767D02*
G01*
X126259561Y-60373364D01*
X126376824Y-60436042D01*
X126479606Y-60520394D01*
X126563958Y-60623176D01*
X126626636Y-60740439D01*
X126665233Y-60867677D01*
X126678266Y-61000000D01*
X126665233Y-61132323D01*
X126626636Y-61259561D01*
X126563958Y-61376824D01*
X126479606Y-61479606D01*
X126376824Y-61563958D01*
X126259561Y-61626636D01*
X126132323Y-61665233D01*
X126033159Y-61675000D01*
X125966841Y-61675000D01*
X125867677Y-61665233D01*
X125740439Y-61626636D01*
X125623176Y-61563958D01*
X125520394Y-61479606D01*
X125436042Y-61376824D01*
X125373364Y-61259561D01*
X125334767Y-61132323D01*
X125321734Y-61000000D01*
X125334767Y-60867677D01*
X125373364Y-60740439D01*
X125436042Y-60623176D01*
X125520394Y-60520394D01*
X125623176Y-60436042D01*
X125740439Y-60373364D01*
X125867677Y-60334767D01*
X125966841Y-60325000D01*
X126033159Y-60325000D01*
X126132323Y-60334767D01*
X126132323Y-60334767D01*
G37*
G36*
X124132323Y-60334767D02*
G01*
X124259561Y-60373364D01*
X124376824Y-60436042D01*
X124479606Y-60520394D01*
X124563958Y-60623176D01*
X124626636Y-60740439D01*
X124665233Y-60867677D01*
X124678266Y-61000000D01*
X124665233Y-61132323D01*
X124626636Y-61259561D01*
X124563958Y-61376824D01*
X124479606Y-61479606D01*
X124376824Y-61563958D01*
X124259561Y-61626636D01*
X124132323Y-61665233D01*
X124033159Y-61675000D01*
X123966841Y-61675000D01*
X123867677Y-61665233D01*
X123740439Y-61626636D01*
X123623176Y-61563958D01*
X123520394Y-61479606D01*
X123436042Y-61376824D01*
X123373364Y-61259561D01*
X123334767Y-61132323D01*
X123321734Y-61000000D01*
X123334767Y-60867677D01*
X123373364Y-60740439D01*
X123436042Y-60623176D01*
X123520394Y-60520394D01*
X123623176Y-60436042D01*
X123740439Y-60373364D01*
X123867677Y-60334767D01*
X123966841Y-60325000D01*
X124033159Y-60325000D01*
X124132323Y-60334767D01*
X124132323Y-60334767D01*
G37*
G36*
X54096032Y-58084469D02*
G01*
X54190285Y-58113061D01*
X54284535Y-58141651D01*
X54284537Y-58141652D01*
X54458258Y-58234507D01*
X54610528Y-58359472D01*
X54735493Y-58511742D01*
X54828348Y-58685463D01*
X54885531Y-58873968D01*
X54904838Y-59070000D01*
X54885531Y-59266032D01*
X54828348Y-59454537D01*
X54735493Y-59628258D01*
X54610528Y-59780528D01*
X54458258Y-59905493D01*
X54284537Y-59998348D01*
X54284535Y-59998349D01*
X54190284Y-60026940D01*
X54096032Y-60055531D01*
X53949124Y-60070000D01*
X53250876Y-60070000D01*
X53103968Y-60055531D01*
X53009716Y-60026940D01*
X52915465Y-59998349D01*
X52915463Y-59998348D01*
X52741742Y-59905493D01*
X52589472Y-59780528D01*
X52464507Y-59628258D01*
X52371652Y-59454537D01*
X52314469Y-59266032D01*
X52295162Y-59070000D01*
X52314469Y-58873968D01*
X52371652Y-58685463D01*
X52464507Y-58511742D01*
X52589472Y-58359472D01*
X52741742Y-58234507D01*
X52915463Y-58141652D01*
X52915465Y-58141651D01*
X53009715Y-58113061D01*
X53103968Y-58084469D01*
X53250876Y-58070000D01*
X53949124Y-58070000D01*
X54096032Y-58084469D01*
X54096032Y-58084469D01*
G37*
G36*
X124132323Y-58334767D02*
G01*
X124259561Y-58373364D01*
X124376824Y-58436042D01*
X124479606Y-58520394D01*
X124563958Y-58623176D01*
X124626636Y-58740439D01*
X124665233Y-58867677D01*
X124678266Y-59000000D01*
X124665233Y-59132323D01*
X124626636Y-59259561D01*
X124563958Y-59376824D01*
X124479606Y-59479606D01*
X124376824Y-59563958D01*
X124259561Y-59626636D01*
X124132323Y-59665233D01*
X124033159Y-59675000D01*
X123966841Y-59675000D01*
X123867677Y-59665233D01*
X123740439Y-59626636D01*
X123623176Y-59563958D01*
X123520394Y-59479606D01*
X123436042Y-59376824D01*
X123373364Y-59259561D01*
X123334767Y-59132323D01*
X123321734Y-59000000D01*
X123334767Y-58867677D01*
X123373364Y-58740439D01*
X123436042Y-58623176D01*
X123520394Y-58520394D01*
X123623176Y-58436042D01*
X123740439Y-58373364D01*
X123867677Y-58334767D01*
X123966841Y-58325000D01*
X124033159Y-58325000D01*
X124132323Y-58334767D01*
X124132323Y-58334767D01*
G37*
G36*
X126132323Y-58334767D02*
G01*
X126259561Y-58373364D01*
X126376824Y-58436042D01*
X126479606Y-58520394D01*
X126563958Y-58623176D01*
X126626636Y-58740439D01*
X126665233Y-58867677D01*
X126678266Y-59000000D01*
X126665233Y-59132323D01*
X126626636Y-59259561D01*
X126563958Y-59376824D01*
X126479606Y-59479606D01*
X126376824Y-59563958D01*
X126259561Y-59626636D01*
X126132323Y-59665233D01*
X126033159Y-59675000D01*
X125966841Y-59675000D01*
X125867677Y-59665233D01*
X125740439Y-59626636D01*
X125623176Y-59563958D01*
X125520394Y-59479606D01*
X125436042Y-59376824D01*
X125373364Y-59259561D01*
X125334767Y-59132323D01*
X125321734Y-59000000D01*
X125334767Y-58867677D01*
X125373364Y-58740439D01*
X125436042Y-58623176D01*
X125520394Y-58520394D01*
X125623176Y-58436042D01*
X125740439Y-58373364D01*
X125867677Y-58334767D01*
X125966841Y-58325000D01*
X126033159Y-58325000D01*
X126132323Y-58334767D01*
X126132323Y-58334767D01*
G37*
G36*
X124132323Y-56334767D02*
G01*
X124259561Y-56373364D01*
X124376824Y-56436042D01*
X124479606Y-56520394D01*
X124563958Y-56623176D01*
X124626636Y-56740439D01*
X124665233Y-56867677D01*
X124678266Y-57000000D01*
X124665233Y-57132323D01*
X124626636Y-57259561D01*
X124563958Y-57376824D01*
X124479606Y-57479606D01*
X124376824Y-57563958D01*
X124259561Y-57626636D01*
X124132323Y-57665233D01*
X124033159Y-57675000D01*
X123966841Y-57675000D01*
X123867677Y-57665233D01*
X123740439Y-57626636D01*
X123623176Y-57563958D01*
X123520394Y-57479606D01*
X123436042Y-57376824D01*
X123373364Y-57259561D01*
X123334767Y-57132323D01*
X123321734Y-57000000D01*
X123334767Y-56867677D01*
X123373364Y-56740439D01*
X123436042Y-56623176D01*
X123520394Y-56520394D01*
X123623176Y-56436042D01*
X123740439Y-56373364D01*
X123867677Y-56334767D01*
X123966841Y-56325000D01*
X124033159Y-56325000D01*
X124132323Y-56334767D01*
X124132323Y-56334767D01*
G37*
G36*
X126132323Y-56334767D02*
G01*
X126259561Y-56373364D01*
X126376824Y-56436042D01*
X126479606Y-56520394D01*
X126563958Y-56623176D01*
X126626636Y-56740439D01*
X126665233Y-56867677D01*
X126678266Y-57000000D01*
X126665233Y-57132323D01*
X126626636Y-57259561D01*
X126563958Y-57376824D01*
X126479606Y-57479606D01*
X126376824Y-57563958D01*
X126259561Y-57626636D01*
X126132323Y-57665233D01*
X126033159Y-57675000D01*
X125966841Y-57675000D01*
X125867677Y-57665233D01*
X125740439Y-57626636D01*
X125623176Y-57563958D01*
X125520394Y-57479606D01*
X125436042Y-57376824D01*
X125373364Y-57259561D01*
X125334767Y-57132323D01*
X125321734Y-57000000D01*
X125334767Y-56867677D01*
X125373364Y-56740439D01*
X125436042Y-56623176D01*
X125520394Y-56520394D01*
X125623176Y-56436042D01*
X125740439Y-56373364D01*
X125867677Y-56334767D01*
X125966841Y-56325000D01*
X126033159Y-56325000D01*
X126132323Y-56334767D01*
X126132323Y-56334767D01*
G37*
G36*
X126132323Y-54334767D02*
G01*
X126259561Y-54373364D01*
X126376824Y-54436042D01*
X126479606Y-54520394D01*
X126563958Y-54623176D01*
X126626636Y-54740439D01*
X126665233Y-54867677D01*
X126678266Y-55000000D01*
X126665233Y-55132323D01*
X126626636Y-55259561D01*
X126563958Y-55376824D01*
X126479606Y-55479606D01*
X126376824Y-55563958D01*
X126259561Y-55626636D01*
X126132323Y-55665233D01*
X126033159Y-55675000D01*
X125966841Y-55675000D01*
X125867677Y-55665233D01*
X125740439Y-55626636D01*
X125623176Y-55563958D01*
X125520394Y-55479606D01*
X125436042Y-55376824D01*
X125373364Y-55259561D01*
X125334767Y-55132323D01*
X125321734Y-55000000D01*
X125334767Y-54867677D01*
X125373364Y-54740439D01*
X125436042Y-54623176D01*
X125520394Y-54520394D01*
X125623176Y-54436042D01*
X125740439Y-54373364D01*
X125867677Y-54334767D01*
X125966841Y-54325000D01*
X126033159Y-54325000D01*
X126132323Y-54334767D01*
X126132323Y-54334767D01*
G37*
G36*
X124132323Y-54334767D02*
G01*
X124259561Y-54373364D01*
X124376824Y-54436042D01*
X124479606Y-54520394D01*
X124563958Y-54623176D01*
X124626636Y-54740439D01*
X124665233Y-54867677D01*
X124678266Y-55000000D01*
X124665233Y-55132323D01*
X124626636Y-55259561D01*
X124563958Y-55376824D01*
X124479606Y-55479606D01*
X124376824Y-55563958D01*
X124259561Y-55626636D01*
X124132323Y-55665233D01*
X124033159Y-55675000D01*
X123966841Y-55675000D01*
X123867677Y-55665233D01*
X123740439Y-55626636D01*
X123623176Y-55563958D01*
X123520394Y-55479606D01*
X123436042Y-55376824D01*
X123373364Y-55259561D01*
X123334767Y-55132323D01*
X123321734Y-55000000D01*
X123334767Y-54867677D01*
X123373364Y-54740439D01*
X123436042Y-54623176D01*
X123520394Y-54520394D01*
X123623176Y-54436042D01*
X123740439Y-54373364D01*
X123867677Y-54334767D01*
X123966841Y-54325000D01*
X124033159Y-54325000D01*
X124132323Y-54334767D01*
X124132323Y-54334767D01*
G37*
G36*
X124132323Y-52334767D02*
G01*
X124259561Y-52373364D01*
X124376824Y-52436042D01*
X124479606Y-52520394D01*
X124563958Y-52623176D01*
X124626636Y-52740439D01*
X124665233Y-52867677D01*
X124678266Y-53000000D01*
X124665233Y-53132323D01*
X124626636Y-53259561D01*
X124563958Y-53376824D01*
X124479606Y-53479606D01*
X124376824Y-53563958D01*
X124259561Y-53626636D01*
X124132323Y-53665233D01*
X124033159Y-53675000D01*
X123966841Y-53675000D01*
X123867677Y-53665233D01*
X123740439Y-53626636D01*
X123623176Y-53563958D01*
X123520394Y-53479606D01*
X123436042Y-53376824D01*
X123373364Y-53259561D01*
X123334767Y-53132323D01*
X123321734Y-53000000D01*
X123334767Y-52867677D01*
X123373364Y-52740439D01*
X123436042Y-52623176D01*
X123520394Y-52520394D01*
X123623176Y-52436042D01*
X123740439Y-52373364D01*
X123867677Y-52334767D01*
X123966841Y-52325000D01*
X124033159Y-52325000D01*
X124132323Y-52334767D01*
X124132323Y-52334767D01*
G37*
G36*
X126132323Y-52334767D02*
G01*
X126259561Y-52373364D01*
X126376824Y-52436042D01*
X126479606Y-52520394D01*
X126563958Y-52623176D01*
X126626636Y-52740439D01*
X126665233Y-52867677D01*
X126678266Y-53000000D01*
X126665233Y-53132323D01*
X126626636Y-53259561D01*
X126563958Y-53376824D01*
X126479606Y-53479606D01*
X126376824Y-53563958D01*
X126259561Y-53626636D01*
X126132323Y-53665233D01*
X126033159Y-53675000D01*
X125966841Y-53675000D01*
X125867677Y-53665233D01*
X125740439Y-53626636D01*
X125623176Y-53563958D01*
X125520394Y-53479606D01*
X125436042Y-53376824D01*
X125373364Y-53259561D01*
X125334767Y-53132323D01*
X125321734Y-53000000D01*
X125334767Y-52867677D01*
X125373364Y-52740439D01*
X125436042Y-52623176D01*
X125520394Y-52520394D01*
X125623176Y-52436042D01*
X125740439Y-52373364D01*
X125867677Y-52334767D01*
X125966841Y-52325000D01*
X126033159Y-52325000D01*
X126132323Y-52334767D01*
X126132323Y-52334767D01*
G37*
G36*
X55000000Y-52660000D02*
G01*
X52400000Y-52660000D01*
X52400000Y-50660000D01*
X55000000Y-50660000D01*
X55000000Y-52660000D01*
X55000000Y-52660000D01*
G37*
G36*
X126132323Y-50334767D02*
G01*
X126259561Y-50373364D01*
X126376824Y-50436042D01*
X126479606Y-50520394D01*
X126563958Y-50623176D01*
X126626636Y-50740439D01*
X126665233Y-50867677D01*
X126678266Y-51000000D01*
X126665233Y-51132323D01*
X126626636Y-51259561D01*
X126563958Y-51376824D01*
X126479606Y-51479606D01*
X126376824Y-51563958D01*
X126259561Y-51626636D01*
X126132323Y-51665233D01*
X126033159Y-51675000D01*
X125966841Y-51675000D01*
X125867677Y-51665233D01*
X125740439Y-51626636D01*
X125623176Y-51563958D01*
X125520394Y-51479606D01*
X125436042Y-51376824D01*
X125373364Y-51259561D01*
X125334767Y-51132323D01*
X125321734Y-51000000D01*
X125334767Y-50867677D01*
X125373364Y-50740439D01*
X125436042Y-50623176D01*
X125520394Y-50520394D01*
X125623176Y-50436042D01*
X125740439Y-50373364D01*
X125867677Y-50334767D01*
X125966841Y-50325000D01*
X126033159Y-50325000D01*
X126132323Y-50334767D01*
X126132323Y-50334767D01*
G37*
G36*
X124132323Y-50334767D02*
G01*
X124259561Y-50373364D01*
X124376824Y-50436042D01*
X124479606Y-50520394D01*
X124563958Y-50623176D01*
X124626636Y-50740439D01*
X124665233Y-50867677D01*
X124678266Y-51000000D01*
X124665233Y-51132323D01*
X124626636Y-51259561D01*
X124563958Y-51376824D01*
X124479606Y-51479606D01*
X124376824Y-51563958D01*
X124259561Y-51626636D01*
X124132323Y-51665233D01*
X124033159Y-51675000D01*
X123966841Y-51675000D01*
X123867677Y-51665233D01*
X123740439Y-51626636D01*
X123623176Y-51563958D01*
X123520394Y-51479606D01*
X123436042Y-51376824D01*
X123373364Y-51259561D01*
X123334767Y-51132323D01*
X123321734Y-51000000D01*
X123334767Y-50867677D01*
X123373364Y-50740439D01*
X123436042Y-50623176D01*
X123520394Y-50520394D01*
X123623176Y-50436042D01*
X123740439Y-50373364D01*
X123867677Y-50334767D01*
X123966841Y-50325000D01*
X124033159Y-50325000D01*
X124132323Y-50334767D01*
X124132323Y-50334767D01*
G37*
G36*
X54196032Y-48134469D02*
G01*
X54290284Y-48163060D01*
X54384535Y-48191651D01*
X54384537Y-48191652D01*
X54558258Y-48284507D01*
X54710528Y-48409472D01*
X54835493Y-48561742D01*
X54928348Y-48735463D01*
X54928349Y-48735465D01*
X54956940Y-48829716D01*
X54985531Y-48923968D01*
X55004838Y-49120000D01*
X54985531Y-49316032D01*
X54928348Y-49504537D01*
X54835493Y-49678258D01*
X54710528Y-49830528D01*
X54558258Y-49955493D01*
X54384537Y-50048348D01*
X54384535Y-50048349D01*
X54290285Y-50076939D01*
X54196032Y-50105531D01*
X54049124Y-50120000D01*
X53350876Y-50120000D01*
X53203968Y-50105531D01*
X53109715Y-50076939D01*
X53015465Y-50048349D01*
X53015463Y-50048348D01*
X52841742Y-49955493D01*
X52689472Y-49830528D01*
X52564507Y-49678258D01*
X52471652Y-49504537D01*
X52414469Y-49316032D01*
X52395162Y-49120000D01*
X52414469Y-48923968D01*
X52443060Y-48829716D01*
X52471651Y-48735465D01*
X52471652Y-48735463D01*
X52564507Y-48561742D01*
X52689472Y-48409472D01*
X52841742Y-48284507D01*
X53015463Y-48191652D01*
X53015465Y-48191651D01*
X53109716Y-48163060D01*
X53203968Y-48134469D01*
X53350876Y-48120000D01*
X54049124Y-48120000D01*
X54196032Y-48134469D01*
X54196032Y-48134469D01*
G37*
G36*
X124132323Y-48334767D02*
G01*
X124259561Y-48373364D01*
X124376824Y-48436042D01*
X124479606Y-48520394D01*
X124563958Y-48623176D01*
X124626636Y-48740439D01*
X124665233Y-48867677D01*
X124678266Y-49000000D01*
X124665233Y-49132323D01*
X124626636Y-49259561D01*
X124563958Y-49376824D01*
X124479606Y-49479606D01*
X124376824Y-49563958D01*
X124259561Y-49626636D01*
X124132323Y-49665233D01*
X124033159Y-49675000D01*
X123966841Y-49675000D01*
X123867677Y-49665233D01*
X123740439Y-49626636D01*
X123623176Y-49563958D01*
X123520394Y-49479606D01*
X123436042Y-49376824D01*
X123373364Y-49259561D01*
X123334767Y-49132323D01*
X123321734Y-49000000D01*
X123334767Y-48867677D01*
X123373364Y-48740439D01*
X123436042Y-48623176D01*
X123520394Y-48520394D01*
X123623176Y-48436042D01*
X123740439Y-48373364D01*
X123867677Y-48334767D01*
X123966841Y-48325000D01*
X124033159Y-48325000D01*
X124132323Y-48334767D01*
X124132323Y-48334767D01*
G37*
G36*
X126132323Y-48334767D02*
G01*
X126259561Y-48373364D01*
X126376824Y-48436042D01*
X126479606Y-48520394D01*
X126563958Y-48623176D01*
X126626636Y-48740439D01*
X126665233Y-48867677D01*
X126678266Y-49000000D01*
X126665233Y-49132323D01*
X126626636Y-49259561D01*
X126563958Y-49376824D01*
X126479606Y-49479606D01*
X126376824Y-49563958D01*
X126259561Y-49626636D01*
X126132323Y-49665233D01*
X126033159Y-49675000D01*
X125966841Y-49675000D01*
X125867677Y-49665233D01*
X125740439Y-49626636D01*
X125623176Y-49563958D01*
X125520394Y-49479606D01*
X125436042Y-49376824D01*
X125373364Y-49259561D01*
X125334767Y-49132323D01*
X125321734Y-49000000D01*
X125334767Y-48867677D01*
X125373364Y-48740439D01*
X125436042Y-48623176D01*
X125520394Y-48520394D01*
X125623176Y-48436042D01*
X125740439Y-48373364D01*
X125867677Y-48334767D01*
X125966841Y-48325000D01*
X126033159Y-48325000D01*
X126132323Y-48334767D01*
X126132323Y-48334767D01*
G37*
G36*
X54196032Y-45594469D02*
G01*
X54290284Y-45623060D01*
X54384535Y-45651651D01*
X54384537Y-45651652D01*
X54558258Y-45744507D01*
X54710528Y-45869472D01*
X54835493Y-46021742D01*
X54928348Y-46195463D01*
X54985531Y-46383968D01*
X55004838Y-46580000D01*
X54985531Y-46776032D01*
X54928348Y-46964537D01*
X54835493Y-47138258D01*
X54710528Y-47290528D01*
X54558258Y-47415493D01*
X54384537Y-47508348D01*
X54384535Y-47508349D01*
X54290285Y-47536939D01*
X54196032Y-47565531D01*
X54049124Y-47580000D01*
X53350876Y-47580000D01*
X53203968Y-47565531D01*
X53109715Y-47536939D01*
X53015465Y-47508349D01*
X53015463Y-47508348D01*
X52841742Y-47415493D01*
X52689472Y-47290528D01*
X52564507Y-47138258D01*
X52471652Y-46964537D01*
X52414469Y-46776032D01*
X52395162Y-46580000D01*
X52414469Y-46383968D01*
X52471652Y-46195463D01*
X52564507Y-46021742D01*
X52689472Y-45869472D01*
X52841742Y-45744507D01*
X53015463Y-45651652D01*
X53015465Y-45651651D01*
X53109716Y-45623060D01*
X53203968Y-45594469D01*
X53350876Y-45580000D01*
X54049124Y-45580000D01*
X54196032Y-45594469D01*
X54196032Y-45594469D01*
G37*
G36*
X126132323Y-44334767D02*
G01*
X126259561Y-44373364D01*
X126376824Y-44436042D01*
X126479606Y-44520394D01*
X126563958Y-44623176D01*
X126626636Y-44740439D01*
X126665233Y-44867677D01*
X126678266Y-45000000D01*
X126665233Y-45132323D01*
X126626636Y-45259561D01*
X126563958Y-45376824D01*
X126479606Y-45479606D01*
X126376824Y-45563958D01*
X126259561Y-45626636D01*
X126132323Y-45665233D01*
X126033159Y-45675000D01*
X125966841Y-45675000D01*
X125867677Y-45665233D01*
X125740439Y-45626636D01*
X125623176Y-45563958D01*
X125520394Y-45479606D01*
X125436042Y-45376824D01*
X125373364Y-45259561D01*
X125334767Y-45132323D01*
X125321734Y-45000000D01*
X125334767Y-44867677D01*
X125373364Y-44740439D01*
X125436042Y-44623176D01*
X125520394Y-44520394D01*
X125623176Y-44436042D01*
X125740439Y-44373364D01*
X125867677Y-44334767D01*
X125966841Y-44325000D01*
X126033159Y-44325000D01*
X126132323Y-44334767D01*
X126132323Y-44334767D01*
G37*
G36*
X124675000Y-45675000D02*
G01*
X123325000Y-45675000D01*
X123325000Y-44325000D01*
X124675000Y-44325000D01*
X124675000Y-45675000D01*
X124675000Y-45675000D01*
G37*
G36*
X54196032Y-43054469D02*
G01*
X54290285Y-43083061D01*
X54384535Y-43111651D01*
X54384537Y-43111652D01*
X54558258Y-43204507D01*
X54710528Y-43329472D01*
X54835493Y-43481742D01*
X54928348Y-43655463D01*
X54985531Y-43843968D01*
X55004838Y-44040000D01*
X54985531Y-44236032D01*
X54985530Y-44236034D01*
X54943872Y-44373364D01*
X54928348Y-44424537D01*
X54835493Y-44598258D01*
X54710528Y-44750528D01*
X54558258Y-44875493D01*
X54384537Y-44968348D01*
X54384535Y-44968349D01*
X54290284Y-44996940D01*
X54196032Y-45025531D01*
X54049124Y-45040000D01*
X53350876Y-45040000D01*
X53203968Y-45025531D01*
X53109716Y-44996940D01*
X53015465Y-44968349D01*
X53015463Y-44968348D01*
X52841742Y-44875493D01*
X52689472Y-44750528D01*
X52564507Y-44598258D01*
X52471652Y-44424537D01*
X52456129Y-44373364D01*
X52414470Y-44236034D01*
X52414469Y-44236032D01*
X52395162Y-44040000D01*
X52414469Y-43843968D01*
X52471652Y-43655463D01*
X52564507Y-43481742D01*
X52689472Y-43329472D01*
X52841742Y-43204507D01*
X53015463Y-43111652D01*
X53015465Y-43111651D01*
X53109715Y-43083061D01*
X53203968Y-43054469D01*
X53350876Y-43040000D01*
X54049124Y-43040000D01*
X54196032Y-43054469D01*
X54196032Y-43054469D01*
G37*
G36*
X126132323Y-42334767D02*
G01*
X126259561Y-42373364D01*
X126376824Y-42436042D01*
X126479606Y-42520394D01*
X126563958Y-42623176D01*
X126626636Y-42740439D01*
X126665233Y-42867677D01*
X126678266Y-43000000D01*
X126665233Y-43132323D01*
X126626636Y-43259561D01*
X126563958Y-43376824D01*
X126479606Y-43479606D01*
X126376824Y-43563958D01*
X126259561Y-43626636D01*
X126132323Y-43665233D01*
X126033159Y-43675000D01*
X125966841Y-43675000D01*
X125867677Y-43665233D01*
X125740439Y-43626636D01*
X125623176Y-43563958D01*
X125520394Y-43479606D01*
X125436042Y-43376824D01*
X125373364Y-43259561D01*
X125334767Y-43132323D01*
X125321734Y-43000000D01*
X125334767Y-42867677D01*
X125373364Y-42740439D01*
X125436042Y-42623176D01*
X125520394Y-42520394D01*
X125623176Y-42436042D01*
X125740439Y-42373364D01*
X125867677Y-42334767D01*
X125966841Y-42325000D01*
X126033159Y-42325000D01*
X126132323Y-42334767D01*
X126132323Y-42334767D01*
G37*
G36*
X124132323Y-42334767D02*
G01*
X124259561Y-42373364D01*
X124376824Y-42436042D01*
X124479606Y-42520394D01*
X124563958Y-42623176D01*
X124626636Y-42740439D01*
X124665233Y-42867677D01*
X124678266Y-43000000D01*
X124665233Y-43132323D01*
X124626636Y-43259561D01*
X124563958Y-43376824D01*
X124479606Y-43479606D01*
X124376824Y-43563958D01*
X124259561Y-43626636D01*
X124132323Y-43665233D01*
X124033159Y-43675000D01*
X123966841Y-43675000D01*
X123867677Y-43665233D01*
X123740439Y-43626636D01*
X123623176Y-43563958D01*
X123520394Y-43479606D01*
X123436042Y-43376824D01*
X123373364Y-43259561D01*
X123334767Y-43132323D01*
X123321734Y-43000000D01*
X123334767Y-42867677D01*
X123373364Y-42740439D01*
X123436042Y-42623176D01*
X123520394Y-42520394D01*
X123623176Y-42436042D01*
X123740439Y-42373364D01*
X123867677Y-42334767D01*
X123966841Y-42325000D01*
X124033159Y-42325000D01*
X124132323Y-42334767D01*
X124132323Y-42334767D01*
G37*
G36*
X54196032Y-40514469D02*
G01*
X54290284Y-40543060D01*
X54384535Y-40571651D01*
X54384537Y-40571652D01*
X54558258Y-40664507D01*
X54710528Y-40789472D01*
X54835493Y-40941742D01*
X54866632Y-41000000D01*
X54928349Y-41115465D01*
X54956940Y-41209716D01*
X54985531Y-41303968D01*
X55004838Y-41500000D01*
X54985531Y-41696032D01*
X54928348Y-41884537D01*
X54835493Y-42058258D01*
X54710528Y-42210528D01*
X54558258Y-42335493D01*
X54384537Y-42428348D01*
X54384535Y-42428349D01*
X54290285Y-42456939D01*
X54196032Y-42485531D01*
X54049124Y-42500000D01*
X53350876Y-42500000D01*
X53203968Y-42485531D01*
X53109715Y-42456939D01*
X53015465Y-42428349D01*
X53015463Y-42428348D01*
X52841742Y-42335493D01*
X52689472Y-42210528D01*
X52564507Y-42058258D01*
X52471652Y-41884537D01*
X52414469Y-41696032D01*
X52395162Y-41500000D01*
X52414469Y-41303968D01*
X52443060Y-41209716D01*
X52471651Y-41115465D01*
X52533368Y-41000000D01*
X52564507Y-40941742D01*
X52689472Y-40789472D01*
X52841742Y-40664507D01*
X53015463Y-40571652D01*
X53015465Y-40571651D01*
X53109716Y-40543060D01*
X53203968Y-40514469D01*
X53350876Y-40500000D01*
X54049124Y-40500000D01*
X54196032Y-40514469D01*
X54196032Y-40514469D01*
G37*
G36*
X124132323Y-40334767D02*
G01*
X124259561Y-40373364D01*
X124376824Y-40436042D01*
X124479606Y-40520394D01*
X124563958Y-40623176D01*
X124626636Y-40740439D01*
X124665233Y-40867677D01*
X124678266Y-41000000D01*
X124665233Y-41132323D01*
X124626636Y-41259561D01*
X124563958Y-41376824D01*
X124479606Y-41479606D01*
X124376824Y-41563958D01*
X124259561Y-41626636D01*
X124132323Y-41665233D01*
X124033159Y-41675000D01*
X123966841Y-41675000D01*
X123867677Y-41665233D01*
X123740439Y-41626636D01*
X123623176Y-41563958D01*
X123520394Y-41479606D01*
X123436042Y-41376824D01*
X123373364Y-41259561D01*
X123334767Y-41132323D01*
X123321734Y-41000000D01*
X123334767Y-40867677D01*
X123373364Y-40740439D01*
X123436042Y-40623176D01*
X123520394Y-40520394D01*
X123623176Y-40436042D01*
X123740439Y-40373364D01*
X123867677Y-40334767D01*
X123966841Y-40325000D01*
X124033159Y-40325000D01*
X124132323Y-40334767D01*
X124132323Y-40334767D01*
G37*
G36*
X126132323Y-40334767D02*
G01*
X126259561Y-40373364D01*
X126376824Y-40436042D01*
X126479606Y-40520394D01*
X126563958Y-40623176D01*
X126626636Y-40740439D01*
X126665233Y-40867677D01*
X126678266Y-41000000D01*
X126665233Y-41132323D01*
X126626636Y-41259561D01*
X126563958Y-41376824D01*
X126479606Y-41479606D01*
X126376824Y-41563958D01*
X126259561Y-41626636D01*
X126132323Y-41665233D01*
X126033159Y-41675000D01*
X125966841Y-41675000D01*
X125867677Y-41665233D01*
X125740439Y-41626636D01*
X125623176Y-41563958D01*
X125520394Y-41479606D01*
X125436042Y-41376824D01*
X125373364Y-41259561D01*
X125334767Y-41132323D01*
X125321734Y-41000000D01*
X125334767Y-40867677D01*
X125373364Y-40740439D01*
X125436042Y-40623176D01*
X125520394Y-40520394D01*
X125623176Y-40436042D01*
X125740439Y-40373364D01*
X125867677Y-40334767D01*
X125966841Y-40325000D01*
X126033159Y-40325000D01*
X126132323Y-40334767D01*
X126132323Y-40334767D01*
G37*
G36*
X54196032Y-37974469D02*
G01*
X54290285Y-38003061D01*
X54384535Y-38031651D01*
X54384537Y-38031652D01*
X54558258Y-38124507D01*
X54710528Y-38249472D01*
X54835493Y-38401742D01*
X54928348Y-38575463D01*
X54985531Y-38763968D01*
X55004838Y-38960000D01*
X54985531Y-39156032D01*
X54985530Y-39156034D01*
X54954126Y-39259561D01*
X54928348Y-39344537D01*
X54835493Y-39518258D01*
X54710528Y-39670528D01*
X54558258Y-39795493D01*
X54384537Y-39888348D01*
X54384535Y-39888349D01*
X54290284Y-39916940D01*
X54196032Y-39945531D01*
X54049124Y-39960000D01*
X53350876Y-39960000D01*
X53203968Y-39945531D01*
X53109716Y-39916940D01*
X53015465Y-39888349D01*
X53015463Y-39888348D01*
X52841742Y-39795493D01*
X52689472Y-39670528D01*
X52564507Y-39518258D01*
X52471652Y-39344537D01*
X52445875Y-39259561D01*
X52414470Y-39156034D01*
X52414469Y-39156032D01*
X52395162Y-38960000D01*
X52414469Y-38763968D01*
X52471652Y-38575463D01*
X52564507Y-38401742D01*
X52689472Y-38249472D01*
X52841742Y-38124507D01*
X53015463Y-38031652D01*
X53015465Y-38031651D01*
X53109715Y-38003061D01*
X53203968Y-37974469D01*
X53350876Y-37960000D01*
X54049124Y-37960000D01*
X54196032Y-37974469D01*
X54196032Y-37974469D01*
G37*
G36*
X124132323Y-38334767D02*
G01*
X124259561Y-38373364D01*
X124376824Y-38436042D01*
X124479606Y-38520394D01*
X124563958Y-38623176D01*
X124626636Y-38740439D01*
X124665233Y-38867677D01*
X124678266Y-39000000D01*
X124665233Y-39132323D01*
X124626636Y-39259561D01*
X124563958Y-39376824D01*
X124479606Y-39479606D01*
X124376824Y-39563958D01*
X124259561Y-39626636D01*
X124132323Y-39665233D01*
X124033159Y-39675000D01*
X123966841Y-39675000D01*
X123867677Y-39665233D01*
X123740439Y-39626636D01*
X123623176Y-39563958D01*
X123520394Y-39479606D01*
X123436042Y-39376824D01*
X123373364Y-39259561D01*
X123334767Y-39132323D01*
X123321734Y-39000000D01*
X123334767Y-38867677D01*
X123373364Y-38740439D01*
X123436042Y-38623176D01*
X123520394Y-38520394D01*
X123623176Y-38436042D01*
X123740439Y-38373364D01*
X123867677Y-38334767D01*
X123966841Y-38325000D01*
X124033159Y-38325000D01*
X124132323Y-38334767D01*
X124132323Y-38334767D01*
G37*
G36*
X126132323Y-38334767D02*
G01*
X126259561Y-38373364D01*
X126376824Y-38436042D01*
X126479606Y-38520394D01*
X126563958Y-38623176D01*
X126626636Y-38740439D01*
X126665233Y-38867677D01*
X126678266Y-39000000D01*
X126665233Y-39132323D01*
X126626636Y-39259561D01*
X126563958Y-39376824D01*
X126479606Y-39479606D01*
X126376824Y-39563958D01*
X126259561Y-39626636D01*
X126132323Y-39665233D01*
X126033159Y-39675000D01*
X125966841Y-39675000D01*
X125867677Y-39665233D01*
X125740439Y-39626636D01*
X125623176Y-39563958D01*
X125520394Y-39479606D01*
X125436042Y-39376824D01*
X125373364Y-39259561D01*
X125334767Y-39132323D01*
X125321734Y-39000000D01*
X125334767Y-38867677D01*
X125373364Y-38740439D01*
X125436042Y-38623176D01*
X125520394Y-38520394D01*
X125623176Y-38436042D01*
X125740439Y-38373364D01*
X125867677Y-38334767D01*
X125966841Y-38325000D01*
X126033159Y-38325000D01*
X126132323Y-38334767D01*
X126132323Y-38334767D01*
G37*
G36*
X124132323Y-36334767D02*
G01*
X124259561Y-36373364D01*
X124376824Y-36436042D01*
X124479606Y-36520394D01*
X124563958Y-36623176D01*
X124626636Y-36740439D01*
X124665233Y-36867677D01*
X124678266Y-37000000D01*
X124665233Y-37132323D01*
X124626636Y-37259561D01*
X124563958Y-37376824D01*
X124479606Y-37479606D01*
X124376824Y-37563958D01*
X124259561Y-37626636D01*
X124132323Y-37665233D01*
X124033159Y-37675000D01*
X123966841Y-37675000D01*
X123867677Y-37665233D01*
X123740439Y-37626636D01*
X123623176Y-37563958D01*
X123520394Y-37479606D01*
X123436042Y-37376824D01*
X123373364Y-37259561D01*
X123334767Y-37132323D01*
X123321734Y-37000000D01*
X123334767Y-36867677D01*
X123373364Y-36740439D01*
X123436042Y-36623176D01*
X123520394Y-36520394D01*
X123623176Y-36436042D01*
X123740439Y-36373364D01*
X123867677Y-36334767D01*
X123966841Y-36325000D01*
X124033159Y-36325000D01*
X124132323Y-36334767D01*
X124132323Y-36334767D01*
G37*
G36*
X126132323Y-36334767D02*
G01*
X126259561Y-36373364D01*
X126376824Y-36436042D01*
X126479606Y-36520394D01*
X126563958Y-36623176D01*
X126626636Y-36740439D01*
X126665233Y-36867677D01*
X126678266Y-37000000D01*
X126665233Y-37132323D01*
X126626636Y-37259561D01*
X126563958Y-37376824D01*
X126479606Y-37479606D01*
X126376824Y-37563958D01*
X126259561Y-37626636D01*
X126132323Y-37665233D01*
X126033159Y-37675000D01*
X125966841Y-37675000D01*
X125867677Y-37665233D01*
X125740439Y-37626636D01*
X125623176Y-37563958D01*
X125520394Y-37479606D01*
X125436042Y-37376824D01*
X125373364Y-37259561D01*
X125334767Y-37132323D01*
X125321734Y-37000000D01*
X125334767Y-36867677D01*
X125373364Y-36740439D01*
X125436042Y-36623176D01*
X125520394Y-36520394D01*
X125623176Y-36436042D01*
X125740439Y-36373364D01*
X125867677Y-36334767D01*
X125966841Y-36325000D01*
X126033159Y-36325000D01*
X126132323Y-36334767D01*
X126132323Y-36334767D01*
G37*
G36*
X54196032Y-35434469D02*
G01*
X54290284Y-35463060D01*
X54384535Y-35491651D01*
X54384537Y-35491652D01*
X54558258Y-35584507D01*
X54710528Y-35709472D01*
X54835493Y-35861742D01*
X54928348Y-36035463D01*
X54985531Y-36223968D01*
X55004838Y-36420000D01*
X54985531Y-36616032D01*
X54928348Y-36804537D01*
X54835493Y-36978258D01*
X54710528Y-37130528D01*
X54558258Y-37255493D01*
X54384537Y-37348348D01*
X54384535Y-37348349D01*
X54290665Y-37376824D01*
X54196032Y-37405531D01*
X54049124Y-37420000D01*
X53350876Y-37420000D01*
X53203968Y-37405531D01*
X53109335Y-37376824D01*
X53015465Y-37348349D01*
X53015463Y-37348348D01*
X52841742Y-37255493D01*
X52689472Y-37130528D01*
X52564507Y-36978258D01*
X52471652Y-36804537D01*
X52414469Y-36616032D01*
X52395162Y-36420000D01*
X52414469Y-36223968D01*
X52471652Y-36035463D01*
X52564507Y-35861742D01*
X52689472Y-35709472D01*
X52841742Y-35584507D01*
X53015463Y-35491652D01*
X53015465Y-35491651D01*
X53109716Y-35463060D01*
X53203968Y-35434469D01*
X53350876Y-35420000D01*
X54049124Y-35420000D01*
X54196032Y-35434469D01*
X54196032Y-35434469D01*
G37*
G36*
X54196032Y-32894469D02*
G01*
X54290285Y-32923061D01*
X54384535Y-32951651D01*
X54384537Y-32951652D01*
X54558258Y-33044507D01*
X54710528Y-33169472D01*
X54835493Y-33321742D01*
X54928348Y-33495463D01*
X54985531Y-33683968D01*
X55004838Y-33880000D01*
X54985531Y-34076032D01*
X54928348Y-34264537D01*
X54835493Y-34438258D01*
X54710528Y-34590528D01*
X54558258Y-34715493D01*
X54384537Y-34808348D01*
X54384535Y-34808349D01*
X54290284Y-34836940D01*
X54196032Y-34865531D01*
X54049124Y-34880000D01*
X53350876Y-34880000D01*
X53203968Y-34865531D01*
X53109716Y-34836940D01*
X53015465Y-34808349D01*
X53015463Y-34808348D01*
X52841742Y-34715493D01*
X52689472Y-34590528D01*
X52564507Y-34438258D01*
X52471652Y-34264537D01*
X52414469Y-34076032D01*
X52395162Y-33880000D01*
X52414469Y-33683968D01*
X52471652Y-33495463D01*
X52564507Y-33321742D01*
X52689472Y-33169472D01*
X52841742Y-33044507D01*
X53015463Y-32951652D01*
X53015465Y-32951651D01*
X53109715Y-32923061D01*
X53203968Y-32894469D01*
X53350876Y-32880000D01*
X54049124Y-32880000D01*
X54196032Y-32894469D01*
X54196032Y-32894469D01*
G37*
G36*
X55409729Y-22940154D02*
G01*
X55612606Y-22980509D01*
X55882871Y-23092457D01*
X55938418Y-23115465D01*
X55994818Y-23138827D01*
X56338799Y-23368668D01*
X56631332Y-23661201D01*
X56861173Y-24005182D01*
X57019491Y-24387394D01*
X57100200Y-24793148D01*
X57100200Y-25206852D01*
X57019491Y-25612606D01*
X56861173Y-25994818D01*
X56631332Y-26338799D01*
X56338799Y-26631332D01*
X55994818Y-26861173D01*
X55612606Y-27019491D01*
X55409729Y-27059846D01*
X55206853Y-27100200D01*
X54793147Y-27100200D01*
X54590271Y-27059846D01*
X54387394Y-27019491D01*
X54005182Y-26861173D01*
X53661201Y-26631332D01*
X53368668Y-26338799D01*
X53138827Y-25994818D01*
X52980509Y-25612606D01*
X52899800Y-25206852D01*
X52899800Y-24793148D01*
X52980509Y-24387394D01*
X53138827Y-24005182D01*
X53368668Y-23661201D01*
X53661201Y-23368668D01*
X54005182Y-23138827D01*
X54061583Y-23115465D01*
X54117129Y-23092457D01*
X54387394Y-22980509D01*
X54590271Y-22940155D01*
X54793147Y-22899800D01*
X55206853Y-22899800D01*
X55409729Y-22940154D01*
X55409729Y-22940154D01*
G37*
G36*
X125409729Y-22940154D02*
G01*
X125612606Y-22980509D01*
X125882871Y-23092457D01*
X125938418Y-23115465D01*
X125994818Y-23138827D01*
X126338799Y-23368668D01*
X126631332Y-23661201D01*
X126861173Y-24005182D01*
X127019491Y-24387394D01*
X127100200Y-24793148D01*
X127100200Y-25206852D01*
X127019491Y-25612606D01*
X126861173Y-25994818D01*
X126631332Y-26338799D01*
X126338799Y-26631332D01*
X125994818Y-26861173D01*
X125612606Y-27019491D01*
X125409729Y-27059846D01*
X125206853Y-27100200D01*
X124793147Y-27100200D01*
X124590271Y-27059846D01*
X124387394Y-27019491D01*
X124005182Y-26861173D01*
X123661201Y-26631332D01*
X123368668Y-26338799D01*
X123138827Y-25994818D01*
X122980509Y-25612606D01*
X122899800Y-25206852D01*
X122899800Y-24793148D01*
X122980509Y-24387394D01*
X123138827Y-24005182D01*
X123368668Y-23661201D01*
X123661201Y-23368668D01*
X124005182Y-23138827D01*
X124061583Y-23115465D01*
X124117129Y-23092457D01*
X124387394Y-22980509D01*
X124590271Y-22940155D01*
X124793147Y-22899800D01*
X125206853Y-22899800D01*
X125409729Y-22940154D01*
X125409729Y-22940154D01*
G37*
G36*
X115076031Y-22514469D02*
G01*
X115170283Y-22543060D01*
X115264534Y-22571651D01*
X115264536Y-22571652D01*
X115438258Y-22664507D01*
X115590528Y-22789472D01*
X115715493Y-22941742D01*
X115808348Y-23115463D01*
X115808349Y-23115465D01*
X115836940Y-23209716D01*
X115865531Y-23303968D01*
X115880000Y-23450876D01*
X115880000Y-24149123D01*
X115865531Y-24296031D01*
X115844897Y-24364052D01*
X115808349Y-24484535D01*
X115808348Y-24484536D01*
X115715493Y-24658258D01*
X115590528Y-24810528D01*
X115438258Y-24935493D01*
X115264537Y-25028348D01*
X115264535Y-25028349D01*
X115170285Y-25056939D01*
X115076032Y-25085531D01*
X114880000Y-25104838D01*
X114683969Y-25085531D01*
X114589716Y-25056939D01*
X114495466Y-25028349D01*
X114495464Y-25028348D01*
X114321743Y-24935493D01*
X114169473Y-24810528D01*
X114044508Y-24658258D01*
X113951651Y-24484534D01*
X113894469Y-24296035D01*
X113880000Y-24149124D01*
X113880000Y-23450877D01*
X113894469Y-23303969D01*
X113951652Y-23115464D01*
X114044507Y-22941742D01*
X114169472Y-22789472D01*
X114321742Y-22664507D01*
X114495463Y-22571652D01*
X114495465Y-22571651D01*
X114589716Y-22543060D01*
X114683968Y-22514469D01*
X114880000Y-22495162D01*
X115076031Y-22514469D01*
X115076031Y-22514469D01*
G37*
G36*
X85756031Y-22514469D02*
G01*
X85850283Y-22543060D01*
X85944534Y-22571651D01*
X85944536Y-22571652D01*
X86118258Y-22664507D01*
X86270528Y-22789472D01*
X86395493Y-22941742D01*
X86488348Y-23115463D01*
X86488349Y-23115465D01*
X86516940Y-23209716D01*
X86545531Y-23303968D01*
X86560000Y-23450876D01*
X86560000Y-24149123D01*
X86545531Y-24296031D01*
X86524897Y-24364052D01*
X86488349Y-24484535D01*
X86488348Y-24484536D01*
X86395493Y-24658258D01*
X86270528Y-24810528D01*
X86118258Y-24935493D01*
X85944537Y-25028348D01*
X85944535Y-25028349D01*
X85850285Y-25056939D01*
X85756032Y-25085531D01*
X85560000Y-25104838D01*
X85363969Y-25085531D01*
X85269716Y-25056939D01*
X85175466Y-25028349D01*
X85175464Y-25028348D01*
X85001743Y-24935493D01*
X84849473Y-24810528D01*
X84724508Y-24658258D01*
X84631651Y-24484534D01*
X84574469Y-24296035D01*
X84560000Y-24149124D01*
X84560000Y-23450877D01*
X84574469Y-23303969D01*
X84631652Y-23115464D01*
X84724507Y-22941742D01*
X84849472Y-22789472D01*
X85001742Y-22664507D01*
X85175463Y-22571652D01*
X85175465Y-22571651D01*
X85269716Y-22543060D01*
X85363968Y-22514469D01*
X85560000Y-22495162D01*
X85756031Y-22514469D01*
X85756031Y-22514469D01*
G37*
G36*
X83216031Y-22514469D02*
G01*
X83310283Y-22543060D01*
X83404534Y-22571651D01*
X83404536Y-22571652D01*
X83578258Y-22664507D01*
X83730528Y-22789472D01*
X83855493Y-22941742D01*
X83948348Y-23115463D01*
X83948349Y-23115465D01*
X83976940Y-23209716D01*
X84005531Y-23303968D01*
X84020000Y-23450876D01*
X84020000Y-24149123D01*
X84005531Y-24296031D01*
X83984897Y-24364052D01*
X83948349Y-24484535D01*
X83948348Y-24484536D01*
X83855493Y-24658258D01*
X83730528Y-24810528D01*
X83578258Y-24935493D01*
X83404537Y-25028348D01*
X83404535Y-25028349D01*
X83310285Y-25056939D01*
X83216032Y-25085531D01*
X83020000Y-25104838D01*
X82823969Y-25085531D01*
X82729716Y-25056939D01*
X82635466Y-25028349D01*
X82635464Y-25028348D01*
X82461743Y-24935493D01*
X82309473Y-24810528D01*
X82184508Y-24658258D01*
X82091651Y-24484534D01*
X82034469Y-24296035D01*
X82020000Y-24149124D01*
X82020000Y-23450877D01*
X82034469Y-23303969D01*
X82091652Y-23115464D01*
X82184507Y-22941742D01*
X82309472Y-22789472D01*
X82461742Y-22664507D01*
X82635463Y-22571652D01*
X82635465Y-22571651D01*
X82729716Y-22543060D01*
X82823968Y-22514469D01*
X83020000Y-22495162D01*
X83216031Y-22514469D01*
X83216031Y-22514469D01*
G37*
G36*
X65436031Y-22514469D02*
G01*
X65530283Y-22543060D01*
X65624534Y-22571651D01*
X65624536Y-22571652D01*
X65798258Y-22664507D01*
X65950528Y-22789472D01*
X66075493Y-22941742D01*
X66168348Y-23115463D01*
X66168349Y-23115465D01*
X66196939Y-23209715D01*
X66225531Y-23303968D01*
X66240000Y-23450876D01*
X66240000Y-24149123D01*
X66225531Y-24296031D01*
X66204897Y-24364052D01*
X66168349Y-24484535D01*
X66168348Y-24484536D01*
X66075493Y-24658258D01*
X65950528Y-24810528D01*
X65798258Y-24935493D01*
X65624537Y-25028348D01*
X65624535Y-25028349D01*
X65530285Y-25056939D01*
X65436032Y-25085531D01*
X65240000Y-25104838D01*
X65043969Y-25085531D01*
X64949716Y-25056939D01*
X64855466Y-25028349D01*
X64855464Y-25028348D01*
X64681743Y-24935493D01*
X64529473Y-24810528D01*
X64404508Y-24658258D01*
X64311651Y-24484534D01*
X64254469Y-24296035D01*
X64240000Y-24149124D01*
X64240000Y-23450877D01*
X64254469Y-23303969D01*
X64311652Y-23115464D01*
X64404507Y-22941742D01*
X64529472Y-22789472D01*
X64681742Y-22664507D01*
X64855463Y-22571652D01*
X64855465Y-22571651D01*
X64949716Y-22543060D01*
X65043968Y-22514469D01*
X65240000Y-22495162D01*
X65436031Y-22514469D01*
X65436031Y-22514469D01*
G37*
G36*
X80676031Y-22514469D02*
G01*
X80770283Y-22543060D01*
X80864534Y-22571651D01*
X80864536Y-22571652D01*
X81038258Y-22664507D01*
X81190528Y-22789472D01*
X81315493Y-22941742D01*
X81408348Y-23115463D01*
X81408349Y-23115465D01*
X81436940Y-23209716D01*
X81465531Y-23303968D01*
X81480000Y-23450876D01*
X81480000Y-24149123D01*
X81465531Y-24296031D01*
X81444897Y-24364052D01*
X81408349Y-24484535D01*
X81408348Y-24484536D01*
X81315493Y-24658258D01*
X81190528Y-24810528D01*
X81038258Y-24935493D01*
X80864537Y-25028348D01*
X80864535Y-25028349D01*
X80770285Y-25056939D01*
X80676032Y-25085531D01*
X80480000Y-25104838D01*
X80283969Y-25085531D01*
X80189716Y-25056939D01*
X80095466Y-25028349D01*
X80095464Y-25028348D01*
X79921743Y-24935493D01*
X79769473Y-24810528D01*
X79644508Y-24658258D01*
X79551651Y-24484534D01*
X79494469Y-24296035D01*
X79480000Y-24149124D01*
X79480000Y-23450877D01*
X79494469Y-23303969D01*
X79551652Y-23115464D01*
X79644507Y-22941742D01*
X79769472Y-22789472D01*
X79921742Y-22664507D01*
X80095463Y-22571652D01*
X80095465Y-22571651D01*
X80189716Y-22543060D01*
X80283968Y-22514469D01*
X80480000Y-22495162D01*
X80676031Y-22514469D01*
X80676031Y-22514469D01*
G37*
G36*
X70516031Y-22514469D02*
G01*
X70610283Y-22543060D01*
X70704534Y-22571651D01*
X70704536Y-22571652D01*
X70878258Y-22664507D01*
X71030528Y-22789472D01*
X71155493Y-22941742D01*
X71248348Y-23115463D01*
X71248349Y-23115465D01*
X71276939Y-23209715D01*
X71305531Y-23303968D01*
X71320000Y-23450876D01*
X71320000Y-24149123D01*
X71305531Y-24296031D01*
X71284897Y-24364052D01*
X71248349Y-24484535D01*
X71248348Y-24484536D01*
X71155493Y-24658258D01*
X71030528Y-24810528D01*
X70878258Y-24935493D01*
X70704537Y-25028348D01*
X70704535Y-25028349D01*
X70610285Y-25056939D01*
X70516032Y-25085531D01*
X70320000Y-25104838D01*
X70123969Y-25085531D01*
X70029716Y-25056939D01*
X69935466Y-25028349D01*
X69935464Y-25028348D01*
X69761743Y-24935493D01*
X69609473Y-24810528D01*
X69484508Y-24658258D01*
X69391651Y-24484534D01*
X69334469Y-24296035D01*
X69320000Y-24149124D01*
X69320000Y-23450877D01*
X69334469Y-23303969D01*
X69391652Y-23115464D01*
X69484507Y-22941742D01*
X69609472Y-22789472D01*
X69761742Y-22664507D01*
X69935463Y-22571652D01*
X69935465Y-22571651D01*
X70029716Y-22543060D01*
X70123968Y-22514469D01*
X70320000Y-22495162D01*
X70516031Y-22514469D01*
X70516031Y-22514469D01*
G37*
G36*
X67976031Y-22514469D02*
G01*
X68070283Y-22543060D01*
X68164534Y-22571651D01*
X68164536Y-22571652D01*
X68338258Y-22664507D01*
X68490528Y-22789472D01*
X68615493Y-22941742D01*
X68708348Y-23115463D01*
X68708349Y-23115465D01*
X68736939Y-23209715D01*
X68765531Y-23303968D01*
X68780000Y-23450876D01*
X68780000Y-24149123D01*
X68765531Y-24296031D01*
X68744897Y-24364052D01*
X68708349Y-24484535D01*
X68708348Y-24484536D01*
X68615493Y-24658258D01*
X68490528Y-24810528D01*
X68338258Y-24935493D01*
X68164537Y-25028348D01*
X68164535Y-25028349D01*
X68070285Y-25056939D01*
X67976032Y-25085531D01*
X67780000Y-25104838D01*
X67583969Y-25085531D01*
X67489716Y-25056939D01*
X67395466Y-25028349D01*
X67395464Y-25028348D01*
X67221743Y-24935493D01*
X67069473Y-24810528D01*
X66944508Y-24658258D01*
X66851651Y-24484534D01*
X66794469Y-24296035D01*
X66780000Y-24149124D01*
X66780000Y-23450877D01*
X66794469Y-23303969D01*
X66851652Y-23115464D01*
X66944507Y-22941742D01*
X67069472Y-22789472D01*
X67221742Y-22664507D01*
X67395463Y-22571652D01*
X67395465Y-22571651D01*
X67489716Y-22543060D01*
X67583968Y-22514469D01*
X67780000Y-22495162D01*
X67976031Y-22514469D01*
X67976031Y-22514469D01*
G37*
G36*
X73056031Y-22514469D02*
G01*
X73150283Y-22543060D01*
X73244534Y-22571651D01*
X73244536Y-22571652D01*
X73418258Y-22664507D01*
X73570528Y-22789472D01*
X73695493Y-22941742D01*
X73788348Y-23115463D01*
X73788349Y-23115465D01*
X73816939Y-23209715D01*
X73845531Y-23303968D01*
X73860000Y-23450876D01*
X73860000Y-24149123D01*
X73845531Y-24296031D01*
X73824897Y-24364052D01*
X73788349Y-24484535D01*
X73788348Y-24484536D01*
X73695493Y-24658258D01*
X73570528Y-24810528D01*
X73418258Y-24935493D01*
X73244537Y-25028348D01*
X73244535Y-25028349D01*
X73150285Y-25056939D01*
X73056032Y-25085531D01*
X72860000Y-25104838D01*
X72663969Y-25085531D01*
X72569716Y-25056939D01*
X72475466Y-25028349D01*
X72475464Y-25028348D01*
X72301743Y-24935493D01*
X72149473Y-24810528D01*
X72024508Y-24658258D01*
X71931651Y-24484534D01*
X71874469Y-24296035D01*
X71860000Y-24149124D01*
X71860000Y-23450877D01*
X71874469Y-23303969D01*
X71931652Y-23115464D01*
X72024507Y-22941742D01*
X72149472Y-22789472D01*
X72301742Y-22664507D01*
X72475463Y-22571652D01*
X72475465Y-22571651D01*
X72569716Y-22543060D01*
X72663968Y-22514469D01*
X72860000Y-22495162D01*
X73056031Y-22514469D01*
X73056031Y-22514469D01*
G37*
G36*
X75596031Y-22514469D02*
G01*
X75690283Y-22543060D01*
X75784534Y-22571651D01*
X75784536Y-22571652D01*
X75958258Y-22664507D01*
X76110528Y-22789472D01*
X76235493Y-22941742D01*
X76328348Y-23115463D01*
X76328349Y-23115465D01*
X76356940Y-23209716D01*
X76385531Y-23303968D01*
X76400000Y-23450876D01*
X76400000Y-24149123D01*
X76385531Y-24296031D01*
X76364897Y-24364052D01*
X76328349Y-24484535D01*
X76328348Y-24484536D01*
X76235493Y-24658258D01*
X76110528Y-24810528D01*
X75958258Y-24935493D01*
X75784537Y-25028348D01*
X75784535Y-25028349D01*
X75690285Y-25056939D01*
X75596032Y-25085531D01*
X75400000Y-25104838D01*
X75203969Y-25085531D01*
X75109716Y-25056939D01*
X75015466Y-25028349D01*
X75015464Y-25028348D01*
X74841743Y-24935493D01*
X74689473Y-24810528D01*
X74564508Y-24658258D01*
X74471651Y-24484534D01*
X74414469Y-24296035D01*
X74400000Y-24149124D01*
X74400000Y-23450877D01*
X74414469Y-23303969D01*
X74471652Y-23115464D01*
X74564507Y-22941742D01*
X74689472Y-22789472D01*
X74841742Y-22664507D01*
X75015463Y-22571652D01*
X75015465Y-22571651D01*
X75109716Y-22543060D01*
X75203968Y-22514469D01*
X75400000Y-22495162D01*
X75596031Y-22514469D01*
X75596031Y-22514469D01*
G37*
G36*
X78136031Y-22514469D02*
G01*
X78230283Y-22543060D01*
X78324534Y-22571651D01*
X78324536Y-22571652D01*
X78498258Y-22664507D01*
X78650528Y-22789472D01*
X78775493Y-22941742D01*
X78868348Y-23115463D01*
X78868349Y-23115465D01*
X78896940Y-23209716D01*
X78925531Y-23303968D01*
X78940000Y-23450876D01*
X78940000Y-24149123D01*
X78925531Y-24296031D01*
X78904897Y-24364052D01*
X78868349Y-24484535D01*
X78868348Y-24484536D01*
X78775493Y-24658258D01*
X78650528Y-24810528D01*
X78498258Y-24935493D01*
X78324537Y-25028348D01*
X78324535Y-25028349D01*
X78230285Y-25056939D01*
X78136032Y-25085531D01*
X77940000Y-25104838D01*
X77743969Y-25085531D01*
X77649716Y-25056939D01*
X77555466Y-25028349D01*
X77555464Y-25028348D01*
X77381743Y-24935493D01*
X77229473Y-24810528D01*
X77104508Y-24658258D01*
X77011651Y-24484534D01*
X76954469Y-24296035D01*
X76940000Y-24149124D01*
X76940000Y-23450877D01*
X76954469Y-23303969D01*
X77011652Y-23115464D01*
X77104507Y-22941742D01*
X77229472Y-22789472D01*
X77381742Y-22664507D01*
X77555463Y-22571652D01*
X77555465Y-22571651D01*
X77649716Y-22543060D01*
X77743968Y-22514469D01*
X77940000Y-22495162D01*
X78136031Y-22514469D01*
X78136031Y-22514469D01*
G37*
G36*
X117616031Y-22514469D02*
G01*
X117710283Y-22543060D01*
X117804534Y-22571651D01*
X117804536Y-22571652D01*
X117978258Y-22664507D01*
X118130528Y-22789472D01*
X118255493Y-22941742D01*
X118348348Y-23115463D01*
X118348349Y-23115465D01*
X118376940Y-23209716D01*
X118405531Y-23303968D01*
X118420000Y-23450876D01*
X118420000Y-24149123D01*
X118405531Y-24296031D01*
X118384897Y-24364052D01*
X118348349Y-24484535D01*
X118348348Y-24484536D01*
X118255493Y-24658258D01*
X118130528Y-24810528D01*
X117978258Y-24935493D01*
X117804537Y-25028348D01*
X117804535Y-25028349D01*
X117710285Y-25056939D01*
X117616032Y-25085531D01*
X117420000Y-25104838D01*
X117223969Y-25085531D01*
X117129716Y-25056939D01*
X117035466Y-25028349D01*
X117035464Y-25028348D01*
X116861743Y-24935493D01*
X116709473Y-24810528D01*
X116584508Y-24658258D01*
X116491651Y-24484534D01*
X116434469Y-24296035D01*
X116420000Y-24149124D01*
X116420000Y-23450877D01*
X116434469Y-23303969D01*
X116491652Y-23115464D01*
X116584507Y-22941742D01*
X116709472Y-22789472D01*
X116861742Y-22664507D01*
X117035463Y-22571652D01*
X117035465Y-22571651D01*
X117129716Y-22543060D01*
X117223968Y-22514469D01*
X117420000Y-22495162D01*
X117616031Y-22514469D01*
X117616031Y-22514469D01*
G37*
G36*
X112536031Y-22514469D02*
G01*
X112630283Y-22543060D01*
X112724534Y-22571651D01*
X112724536Y-22571652D01*
X112898258Y-22664507D01*
X113050528Y-22789472D01*
X113175493Y-22941742D01*
X113268348Y-23115463D01*
X113268349Y-23115465D01*
X113296940Y-23209716D01*
X113325531Y-23303968D01*
X113340000Y-23450876D01*
X113340000Y-24149123D01*
X113325531Y-24296031D01*
X113304897Y-24364052D01*
X113268349Y-24484535D01*
X113268348Y-24484536D01*
X113175493Y-24658258D01*
X113050528Y-24810528D01*
X112898258Y-24935493D01*
X112724537Y-25028348D01*
X112724535Y-25028349D01*
X112630285Y-25056939D01*
X112536032Y-25085531D01*
X112340000Y-25104838D01*
X112143969Y-25085531D01*
X112049716Y-25056939D01*
X111955466Y-25028349D01*
X111955464Y-25028348D01*
X111781743Y-24935493D01*
X111629473Y-24810528D01*
X111504508Y-24658258D01*
X111411651Y-24484534D01*
X111354469Y-24296035D01*
X111340000Y-24149124D01*
X111340000Y-23450877D01*
X111354469Y-23303969D01*
X111411652Y-23115464D01*
X111504507Y-22941742D01*
X111629472Y-22789472D01*
X111781742Y-22664507D01*
X111955463Y-22571652D01*
X111955465Y-22571651D01*
X112049716Y-22543060D01*
X112143968Y-22514469D01*
X112340000Y-22495162D01*
X112536031Y-22514469D01*
X112536031Y-22514469D01*
G37*
G36*
X109996031Y-22514469D02*
G01*
X110090283Y-22543060D01*
X110184534Y-22571651D01*
X110184536Y-22571652D01*
X110358258Y-22664507D01*
X110510528Y-22789472D01*
X110635493Y-22941742D01*
X110728348Y-23115463D01*
X110728349Y-23115465D01*
X110756940Y-23209716D01*
X110785531Y-23303968D01*
X110800000Y-23450876D01*
X110800000Y-24149123D01*
X110785531Y-24296031D01*
X110764897Y-24364052D01*
X110728349Y-24484535D01*
X110728348Y-24484536D01*
X110635493Y-24658258D01*
X110510528Y-24810528D01*
X110358258Y-24935493D01*
X110184537Y-25028348D01*
X110184535Y-25028349D01*
X110090285Y-25056939D01*
X109996032Y-25085531D01*
X109800000Y-25104838D01*
X109603969Y-25085531D01*
X109509716Y-25056939D01*
X109415466Y-25028349D01*
X109415464Y-25028348D01*
X109241743Y-24935493D01*
X109089473Y-24810528D01*
X108964508Y-24658258D01*
X108871651Y-24484534D01*
X108814469Y-24296035D01*
X108800000Y-24149124D01*
X108800000Y-23450877D01*
X108814469Y-23303969D01*
X108871652Y-23115464D01*
X108964507Y-22941742D01*
X109089472Y-22789472D01*
X109241742Y-22664507D01*
X109415463Y-22571652D01*
X109415465Y-22571651D01*
X109509716Y-22543060D01*
X109603968Y-22514469D01*
X109800000Y-22495162D01*
X109996031Y-22514469D01*
X109996031Y-22514469D01*
G37*
G36*
X107456031Y-22514469D02*
G01*
X107550283Y-22543060D01*
X107644534Y-22571651D01*
X107644536Y-22571652D01*
X107818258Y-22664507D01*
X107970528Y-22789472D01*
X108095493Y-22941742D01*
X108188348Y-23115463D01*
X108188349Y-23115465D01*
X108216940Y-23209716D01*
X108245531Y-23303968D01*
X108260000Y-23450876D01*
X108260000Y-24149123D01*
X108245531Y-24296031D01*
X108224897Y-24364052D01*
X108188349Y-24484535D01*
X108188348Y-24484536D01*
X108095493Y-24658258D01*
X107970528Y-24810528D01*
X107818258Y-24935493D01*
X107644537Y-25028348D01*
X107644535Y-25028349D01*
X107550285Y-25056939D01*
X107456032Y-25085531D01*
X107260000Y-25104838D01*
X107063969Y-25085531D01*
X106969716Y-25056939D01*
X106875466Y-25028349D01*
X106875464Y-25028348D01*
X106701743Y-24935493D01*
X106549473Y-24810528D01*
X106424508Y-24658258D01*
X106331651Y-24484534D01*
X106274469Y-24296035D01*
X106260000Y-24149124D01*
X106260000Y-23450877D01*
X106274469Y-23303969D01*
X106331652Y-23115464D01*
X106424507Y-22941742D01*
X106549472Y-22789472D01*
X106701742Y-22664507D01*
X106875463Y-22571652D01*
X106875465Y-22571651D01*
X106969716Y-22543060D01*
X107063968Y-22514469D01*
X107260000Y-22495162D01*
X107456031Y-22514469D01*
X107456031Y-22514469D01*
G37*
G36*
X104916031Y-22514469D02*
G01*
X105010283Y-22543060D01*
X105104534Y-22571651D01*
X105104536Y-22571652D01*
X105278258Y-22664507D01*
X105430528Y-22789472D01*
X105555493Y-22941742D01*
X105648348Y-23115463D01*
X105648349Y-23115465D01*
X105676940Y-23209716D01*
X105705531Y-23303968D01*
X105720000Y-23450876D01*
X105720000Y-24149123D01*
X105705531Y-24296031D01*
X105684897Y-24364052D01*
X105648349Y-24484535D01*
X105648348Y-24484536D01*
X105555493Y-24658258D01*
X105430528Y-24810528D01*
X105278258Y-24935493D01*
X105104537Y-25028348D01*
X105104535Y-25028349D01*
X105010285Y-25056939D01*
X104916032Y-25085531D01*
X104720000Y-25104838D01*
X104523969Y-25085531D01*
X104429716Y-25056939D01*
X104335466Y-25028349D01*
X104335464Y-25028348D01*
X104161743Y-24935493D01*
X104009473Y-24810528D01*
X103884508Y-24658258D01*
X103791651Y-24484534D01*
X103734469Y-24296035D01*
X103720000Y-24149124D01*
X103720000Y-23450877D01*
X103734469Y-23303969D01*
X103791652Y-23115464D01*
X103884507Y-22941742D01*
X104009472Y-22789472D01*
X104161742Y-22664507D01*
X104335463Y-22571652D01*
X104335465Y-22571651D01*
X104429716Y-22543060D01*
X104523968Y-22514469D01*
X104720000Y-22495162D01*
X104916031Y-22514469D01*
X104916031Y-22514469D01*
G37*
G36*
X102376031Y-22514469D02*
G01*
X102470283Y-22543060D01*
X102564534Y-22571651D01*
X102564536Y-22571652D01*
X102738258Y-22664507D01*
X102890528Y-22789472D01*
X103015493Y-22941742D01*
X103108348Y-23115463D01*
X103108349Y-23115465D01*
X103136940Y-23209716D01*
X103165531Y-23303968D01*
X103180000Y-23450876D01*
X103180000Y-24149123D01*
X103165531Y-24296031D01*
X103144897Y-24364052D01*
X103108349Y-24484535D01*
X103108348Y-24484536D01*
X103015493Y-24658258D01*
X102890528Y-24810528D01*
X102738258Y-24935493D01*
X102564537Y-25028348D01*
X102564535Y-25028349D01*
X102470285Y-25056939D01*
X102376032Y-25085531D01*
X102180000Y-25104838D01*
X101983969Y-25085531D01*
X101889716Y-25056939D01*
X101795466Y-25028349D01*
X101795464Y-25028348D01*
X101621743Y-24935493D01*
X101469473Y-24810528D01*
X101344508Y-24658258D01*
X101251651Y-24484534D01*
X101194469Y-24296035D01*
X101180000Y-24149124D01*
X101180000Y-23450877D01*
X101194469Y-23303969D01*
X101251652Y-23115464D01*
X101344507Y-22941742D01*
X101469472Y-22789472D01*
X101621742Y-22664507D01*
X101795463Y-22571652D01*
X101795465Y-22571651D01*
X101889716Y-22543060D01*
X101983968Y-22514469D01*
X102180000Y-22495162D01*
X102376031Y-22514469D01*
X102376031Y-22514469D01*
G37*
G36*
X99836031Y-22514469D02*
G01*
X99930283Y-22543060D01*
X100024534Y-22571651D01*
X100024536Y-22571652D01*
X100198258Y-22664507D01*
X100350528Y-22789472D01*
X100475493Y-22941742D01*
X100568348Y-23115463D01*
X100568349Y-23115465D01*
X100596940Y-23209716D01*
X100625531Y-23303968D01*
X100640000Y-23450876D01*
X100640000Y-24149123D01*
X100625531Y-24296031D01*
X100604897Y-24364052D01*
X100568349Y-24484535D01*
X100568348Y-24484536D01*
X100475493Y-24658258D01*
X100350528Y-24810528D01*
X100198258Y-24935493D01*
X100024537Y-25028348D01*
X100024535Y-25028349D01*
X99930285Y-25056939D01*
X99836032Y-25085531D01*
X99640000Y-25104838D01*
X99443969Y-25085531D01*
X99349716Y-25056939D01*
X99255466Y-25028349D01*
X99255464Y-25028348D01*
X99081743Y-24935493D01*
X98929473Y-24810528D01*
X98804508Y-24658258D01*
X98711651Y-24484534D01*
X98654469Y-24296035D01*
X98640000Y-24149124D01*
X98640000Y-23450877D01*
X98654469Y-23303969D01*
X98711652Y-23115464D01*
X98804507Y-22941742D01*
X98929472Y-22789472D01*
X99081742Y-22664507D01*
X99255463Y-22571652D01*
X99255465Y-22571651D01*
X99349716Y-22543060D01*
X99443968Y-22514469D01*
X99640000Y-22495162D01*
X99836031Y-22514469D01*
X99836031Y-22514469D01*
G37*
G36*
X97296031Y-22514469D02*
G01*
X97390283Y-22543060D01*
X97484534Y-22571651D01*
X97484536Y-22571652D01*
X97658258Y-22664507D01*
X97810528Y-22789472D01*
X97935493Y-22941742D01*
X98028348Y-23115463D01*
X98028349Y-23115465D01*
X98056940Y-23209716D01*
X98085531Y-23303968D01*
X98100000Y-23450876D01*
X98100000Y-24149123D01*
X98085531Y-24296031D01*
X98064897Y-24364052D01*
X98028349Y-24484535D01*
X98028348Y-24484536D01*
X97935493Y-24658258D01*
X97810528Y-24810528D01*
X97658258Y-24935493D01*
X97484537Y-25028348D01*
X97484535Y-25028349D01*
X97390285Y-25056939D01*
X97296032Y-25085531D01*
X97100000Y-25104838D01*
X96903969Y-25085531D01*
X96809716Y-25056939D01*
X96715466Y-25028349D01*
X96715464Y-25028348D01*
X96541743Y-24935493D01*
X96389473Y-24810528D01*
X96264508Y-24658258D01*
X96171651Y-24484534D01*
X96114469Y-24296035D01*
X96100000Y-24149124D01*
X96100000Y-23450877D01*
X96114469Y-23303969D01*
X96171652Y-23115464D01*
X96264507Y-22941742D01*
X96389472Y-22789472D01*
X96541742Y-22664507D01*
X96715463Y-22571652D01*
X96715465Y-22571651D01*
X96809716Y-22543060D01*
X96903968Y-22514469D01*
X97100000Y-22495162D01*
X97296031Y-22514469D01*
X97296031Y-22514469D01*
G37*
G36*
X63700000Y-25100000D02*
G01*
X61700000Y-25100000D01*
X61700000Y-22500000D01*
X63700000Y-22500000D01*
X63700000Y-25100000D01*
X63700000Y-25100000D01*
G37*
G36*
X95560000Y-25100000D02*
G01*
X93560000Y-25100000D01*
X93560000Y-22500000D01*
X95560000Y-22500000D01*
X95560000Y-25100000D01*
X95560000Y-25100000D01*
G37*
M02*
